<svg width="500" height="500" viewBox="0 0 500 500" fill="none" xmlns="http://www.w3.org/2000/svg">
    <path fill="#FFBB00" d="M337.472 187.264C337.47 187.265 337.469 187.265 337.468 187.265C337.478 187.263 337.48 187.264 337.472 187.264ZM313.982 164.481C304.587 157.107 293.431 149.32 281.835 142.214C292.875 147.216 307.544 154.346 322.247 162.437C340.627 172.552 359.019 184.149 370.447 194.953C371.139 195.608 371.843 196.272 372.558 196.947C395.358 218.455 429.242 250.42 433.938 302.052C427.613 295.109 419.307 290.483 408.236 290.483L408.223 290.484C400.068 290.693 386.527 289.888 372.635 286.787C358.732 283.684 344.548 278.297 335.042 269.392L334.093 268.503L334.202 269.799C335.287 282.686 329.464 293.622 321.248 302.509C313.03 311.397 302.457 318.19 294.153 322.765L293.53 323.108L294.065 323.578L294.395 323.203C294.065 323.578 294.065 323.578 294.065 323.579L294.068 323.581L294.077 323.589L294.112 323.619L294.249 323.74C294.311 323.793 294.387 323.859 294.478 323.938C294.568 324.016 294.671 324.106 294.789 324.208C295.264 324.618 295.965 325.22 296.869 325.987C298.678 327.522 301.303 329.719 304.567 332.367C311.095 337.664 320.184 344.771 330.423 352.012C340.662 359.251 352.059 366.629 363.204 372.463C374.341 378.292 385.265 382.602 394.549 383.668C409.573 385.393 426.233 379.122 439.083 372.474C445.519 369.145 451.021 365.709 454.915 363.105C456.756 361.874 458.239 360.828 459.291 360.067C427.105 418.965 369.876 455.758 300.167 461.31C254.439 464.952 217.434 434.895 216.052 390.152C215.601 375.527 220.911 361.428 228.201 349.782C235.493 338.133 244.736 328.984 252.085 324.255L252.584 323.934L252.184 323.497C245.217 315.891 241.747 304.632 240.305 293.837C238.865 283.049 239.462 272.812 240.555 267.327L240.692 266.638L239.996 266.734C191.137 273.509 158.667 272.873 134.476 262.527C110.315 252.194 94.3238 232.132 78.5334 199.792C70.0656 182.449 60.2147 159.78 52.4786 141.441C48.6111 132.272 45.273 124.188 42.9019 118.397C41.7164 115.501 40.7725 113.178 40.1252 111.579C39.9155 111.061 39.7369 110.62 39.5913 110.259L65.1175 121.752L66.2053 122.241L65.7918 121.122L38.9391 48.4658C82.3815 78.9049 145.886 123.346 200.229 160.834C227.675 179.767 252.786 196.927 271.796 209.615C281.301 215.959 289.284 221.186 295.271 224.959C298.265 226.845 300.763 228.369 302.706 229.488C304.634 230.599 306.051 231.332 306.864 231.611C307.822 231.938 308.642 232.119 309.319 232.068C310.039 232.013 310.6 231.695 310.96 231.078C311.294 230.506 311.432 229.72 311.466 228.768C311.501 227.803 311.43 226.597 311.293 225.139C310.296 214.495 311.488 206.924 313.795 201.544C316.097 196.173 319.522 192.958 323.047 191.033C326.582 189.103 330.238 188.46 333.003 188.272C334.384 188.179 335.538 188.199 336.34 188.227C336.73 188.241 337.066 188.259 337.275 188.264C337.377 188.267 337.483 188.268 337.566 188.26C337.591 188.258 337.689 188.249 337.788 188.202C337.834 188.18 337.975 188.105 338.045 187.927C338.128 187.715 338.048 187.536 337.992 187.453C334.052 181.63 325.263 173.336 313.982 164.481Z" stroke="black"/>
    <path fill="#FFAA00" d="M220.8 385.006C221.023 382.824 221.366 380.959 221.851 379.584C229.885 387.253 240.65 389.656 250.844 389.55C260.369 389.451 269.454 387.162 275.486 384.865C267.813 394.978 257.426 401.168 247.413 404.794C237.187 408.498 227.382 409.517 221.326 409.32C220.919 405.368 220.486 399.327 220.458 393.516C220.443 390.502 220.538 387.559 220.8 385.006Z" stroke="black"/>
    <path fill="#FFAA00" d="M263.9 451.583C257.476 449.082 251.349 445.999 247.815 442.58C257.842 441 269.157 433.442 279.262 424.627C289.121 416.028 297.91 406.159 303.353 399.241C302.76 409.855 299.224 421.469 294.95 431.815C290.55 442.469 285.384 451.739 281.901 457.128C277.458 456.11 270.562 454.176 263.9 451.583ZM340.459 449.619C338.558 450.782 333.913 452.904 328.818 453.209C338.65 442.869 341.455 432.506 341.672 426.014C344.13 436.06 342.046 445.611 340.459 449.619Z" stroke="black"/>
    <path fill="#FFAA00" d="M265.906 275.727C265.621 275.285 265.244 274.682 264.843 273.989C264.009 272.547 263.047 270.678 262.62 269.066C261.33 264.192 262.045 259.937 264.074 256.276C266.096 252.629 269.406 249.598 273.273 247.12C279.936 242.849 288.342 240.163 294.965 238.791C282.751 237.242 273.42 238.354 266.285 241.022C258.577 243.903 253.399 248.611 249.9 253.805C243.357 263.519 242.673 274.941 242.408 279.366C242.389 279.686 242.372 279.969 242.356 280.213C241.647 290.454 244.624 298.922 247.783 304.836C249.363 307.792 250.986 310.107 252.213 311.68C252.826 312.467 253.34 313.068 253.699 313.471C253.822 313.609 253.927 313.724 254.011 313.815C254.14 313.752 254.304 313.672 254.497 313.58C255.006 313.336 255.721 313 256.54 312.634C258.172 311.905 260.241 311.045 261.935 310.554C263.921 309.978 266.517 309.582 268.598 309.331C269.643 309.204 270.565 309.113 271.226 309.054C271.341 309.044 271.449 309.034 271.548 309.026L265.099 296.048L264.566 294.976L265.703 295.351L265.703 295.351L265.704 295.351L265.705 295.351L265.711 295.353L265.737 295.362C265.751 295.366 265.77 295.372 265.792 295.38C265.807 295.384 265.823 295.389 265.84 295.395C265.93 295.423 266.062 295.464 266.228 295.513C266.559 295.612 267.022 295.744 267.551 295.877C268.62 296.145 269.916 296.407 270.925 296.42C272.007 296.435 273.4 296.175 274.55 295.899C274.943 295.805 275.302 295.71 275.604 295.626C275.496 295.543 275.379 295.452 275.253 295.353C274.551 294.801 273.583 294.018 272.524 293.092C270.416 291.249 267.905 288.807 266.413 286.481C265.075 284.396 263.952 281.464 263.168 279.084C262.774 277.888 262.462 276.82 262.249 276.051C262.142 275.666 262.06 275.356 262.005 275.141C261.977 275.034 261.956 274.95 261.941 274.894L261.925 274.829L261.921 274.812L261.92 274.807L261.92 274.806L261.919 274.806C261.919 274.806 261.919 274.806 262.405 274.687L261.919 274.806L261.564 273.352L265.906 275.727ZM265.906 275.727C265.592 275.715 265.27 275.685 265.027 275.625C264.569 275.512 264.003 275.198 263.522 274.88C263.288 274.726 263.086 274.58 262.943 274.472C262.872 274.418 262.816 274.374 262.777 274.344C262.758 274.329 262.744 274.318 262.735 274.31L262.724 274.302L262.722 274.3L262.722 274.3L262.722 274.3L262.722 274.3L265.906 275.727Z" stroke="black"/>
    <path fill="currentColor" d="M398.442 393.883C398.361 393.636 398.289 393.423 398.226 393.243C401.463 393.372 406.425 393.334 411.686 392.835C416.788 392.352 422.207 391.433 426.611 389.792C424.7 392.605 421.156 396.89 416.952 401.145C412.246 405.908 406.769 410.576 401.901 413.083C401.356 406.396 400.4 401.328 399.566 397.897C399.134 396.118 398.734 394.78 398.442 393.883Z" stroke="black"/>
    <path fill="currentColor" d="M122.725 169.042L122.211 169.897L234.639 249.515C184.771 260.492 153.597 257.12 133.199 247.708C112.666 238.233 102.966 222.598 96.1032 209.066C89.2276 195.508 81.1114 178.177 74.7126 164.232C71.5136 157.26 68.7444 151.136 66.7751 146.754C65.7904 144.564 65.0057 142.809 64.4672 141.602C64.351 141.342 64.2463 141.107 64.1535 140.899L85.6969 150.102L86.7434 150.549L86.3648 149.475L64.1637 86.5364L269.52 228.348C263.599 228.32 258.751 230.562 253.888 235.154L122.725 169.042Z" stroke="black"/>
    <path fill="currentColor" d="M384.555 262.23C377.131 258.462 369.511 251.955 365.571 245.262C363.602 241.917 362.58 238.574 362.906 235.528C363.228 232.508 364.884 229.704 368.434 227.423C372.76 224.643 377.796 225.804 383.054 229.391C388.304 232.971 393.63 238.882 398.386 245.267C403.136 251.644 407.292 258.46 410.21 263.816C411.669 266.494 412.814 268.802 413.569 270.504C413.946 271.356 414.222 272.047 414.39 272.552C414.474 272.806 414.527 273.001 414.553 273.14C414.561 273.18 414.566 273.211 414.568 273.236C414.558 273.242 414.544 273.249 414.526 273.257C414.431 273.296 414.267 273.332 414.013 273.343C413.507 273.363 412.775 273.279 411.835 273.087C409.964 272.704 407.39 271.921 404.418 270.857C398.48 268.731 391.021 265.511 384.555 262.23ZM414.572 273.294C414.572 273.293 414.572 273.292 414.572 273.29L414.572 273.294ZM414.593 273.219C414.595 273.216 414.596 273.215 414.596 273.216C414.596 273.216 414.595 273.217 414.593 273.219Z" stroke="black"/>
</svg>
