<?xml version="1.0" encoding="utf-8"?>
<!-- Generator: Adobe Illustrator 24.0.0, SVG Export Plug-In . SVG Version: 6.00 Build 0)  -->
<svg version="1.2" baseProfile="tiny" id="Layer_1" xmlns="http://www.w3.org/2000/svg" xmlns:xlink="http://www.w3.org/1999/xlink"
	 x="0px" y="0px" viewBox="0 0 434.72 136.96" xml:space="preserve">
<path fill="#E30613" d="M299.53,2.32l-6.78,20.55c-0.49,1.48-1.87,2.49-3.43,2.49h-33.66c-1.54,0-2.65-1.52-2.16-2.98l6.91-20.78
	c0.31-0.97,1.21-1.6,2.22-1.6h35.23C299.06,0,299.9,1.19,299.53,2.32"/>
<polygon fill="#1D1D1B" points="95.12,136.96 126.26,136.96 108.93,103.4 77.83,103.4 "/>
<polygon fill="#1D1D1B" points="63.94,136.96 88.85,136.96 71.52,103.4 46.68,103.4 "/>
<polygon fill="#1D1D1B" points="37.65,136.96 57.67,136.96 40.35,103.4 20.39,103.4 "/>
<polygon fill="#1D1D1B" points="17.29,136.96 31.14,136.96 13.79,103.4 0,103.4 "/>
<path fill="#1D1D1B" d="M187.38,136.96h214.4c2.57,0,4.83-1.64,5.63-4.09l5.47-25.73c0.78-2.4-1.01-4.85-3.51-4.85H169.95
	c-2.38,0-3.9,2.57-2.75,4.67l14.92,26.9C183.19,135.77,185.2,136.96,187.38,136.96 M372.53,122.12l1.42-4.34
	c0.7-2.14,1.71-3.64,2.94-4.46c1.27-0.82,3.29-1.25,6-1.25h5.43c1.69,0,2.94,0.08,3.7,0.23c0.64,0.12,1.11,0.35,1.4,0.62
	c0.27,0.29,0.41,0.66,0.43,1.17c0.02,0.58-0.12,1.34-0.41,2.24l-0.16,0.49h-3.72c0.08-0.76-0.23-1.19-0.51-1.42
	c-0.33-0.25-0.99-0.53-3.23-0.53h-2.84c-1.79,0-3,0.23-3.7,0.7c-0.72,0.47-1.29,1.4-1.77,2.84l-0.72,2.22
	c-0.45,1.38-0.41,2.34,0.14,2.94c0.51,0.58,1.58,0.84,3.35,0.84h2.8c1.48,0,2.53-0.14,3.23-0.43c0.76-0.31,1.29-0.88,1.56-1.66
	c0.04-0.1,0.08-0.27,0.08-0.41l0.43-0.86h-5.84l0.68-2.03h9.52l-1.46,4.44c-0.45,1.36-1.23,2.28-2.4,2.84
	c-1.21,0.6-3.19,0.88-5.84,0.88h-5.41c-1.6,0-2.77-0.08-3.45-0.25c-0.62-0.14-1.09-0.39-1.42-0.74c-0.39-0.39-0.6-0.88-0.64-1.5
	C372.02,124.03,372.18,123.17,372.53,122.12 M333.36,112.26h6.39l6.1,12.64l4.15-12.64h3.6l-4.85,14.72h-6.33l-6.21-12.52
	l-4.13,12.52h-3.62L333.36,112.26z M306.99,112.26h3.62l-4.83,14.72h-3.62L306.99,112.26z M269.79,112.26l3.31,6.66l7.95-6.66h3.93
	l-10.89,9.15l-0.12,0.1l-1.81,5.47h-3.62l1.71-5.18l-5.08-9.54L269.79,112.26L269.79,112.26z M234.52,112.26h3.62l-3.97,12.04h10.56
	l-0.88,2.67h-14.2L234.52,112.26z M196.91,112.26h16.11l-0.88,2.69h-12.52l-1.34,4.03h11.8l-0.88,2.65h-11.78l-1.75,5.34h-3.62
	L196.91,112.26z"/>
<path fill="#1D1D1B" d="M282.74,66.63c-1.81,0-3.08-1.77-2.53-3.47l9.13-28.92c0.23-0.72-0.31-1.44-1.05-1.44h-30.77h-4.48
	c-1.5,0-2.84,0.97-3.29,2.38l-16.17,49.24c-1.25,3.82,1.58,7.75,5.61,7.75h24.31h6.95h107.47c16.83,0,31.75-11.02,36.64-27.21
	c4.83-15.95-7.4-31.98-24.05-31.98h-38.93c-1.81,0-3.17-1.75-2.65-3.47c0.72-2.4,2.94-4.03,5.43-4.03h64.31
	c5.24,0,9.91-3.37,11.53-8.36l4.38-13.46c0.58-1.77-0.74-3.58-2.59-3.58h-83.36c-10.91,0-21.5,4.75-28.12,13.42
	c-15.33,20.08-0.84,45.48,21.25,45.48h33.97c1.97,0,3.35,1.95,2.69,3.8l-0.08,0.25c-0.78,2.22-2.88,3.72-5.24,3.72h-72.53
	L282.74,66.63z"/>
<path fill="#1D1D1B" d="M159.39,0.04h-21c-1.71,0-2.8,1.83-1.99,3.33l23.04,42.79l-23.48,19.46L103.41,4.85
	c-1.6-2.96-4.69-4.81-8.06-4.81H73.89c-2.9,0-5.61,1.44-7.25,3.84L9.66,87.96c-1.21,1.79,0.06,4.19,2.22,4.19H77.3
	c1.95,0,3.8-0.97,4.89-2.59l15.87-23.41H92.7H71.63h-8.84l19.96-29.62l11.47,22.2h17.88l-10.15,14.98l32.64,63.22h39.65
	l-24.09-44.89l23.66-19.63l8.06,14.88c1.62,3,4.75,4.85,8.16,4.85h18.07L159.39,0.04z"/>
<path fill="#E30613" d="M246.69,0.04h-34.14c-2.2,0-4.34,0.78-6.04,2.18l-21.13,17.55L176.62,3.6c-1.19-2.18-3.47-3.56-5.96-3.56
	h-7.17l48.67,92.12h8.1c1.95,0,3.19-2.08,2.24-3.78l-22.96-42.21l49.1-40.73C250.82,3.62,249.55,0.04,246.69,0.04"/>
</svg>
