<?xml version="1.0" encoding="UTF-8"?>
<svg id="Layer_1" data-name="Layer 1" xmlns="http://www.w3.org/2000/svg" width="472" height="180" baseProfile="tiny" version="1.2" viewBox="0 0 472 180">
  <path d="M120.57,39.49c-2.01-1.13-4.09-2.05-6.41-2.31-1.15-.13-2.32-.28-3.48-.28-20.46-.02-40.91,0-61.37-.03-.74,0-1.07.26-1.36.9-10.77,23.76-21.6,47.5-32.39,71.24-3.32,7.49-7,15.04-10.17,22.56,0,0-1.78,0-2.59,0,14.32-31.95,29-63.76,43.43-95.67.27-.59.54-.88,1.27-.88,20.81.03,41.61,0,62.42.06,3.97-.01,8.01,1.2,10.65,4.4Z" fill="#c62b26" stroke-width="0"/>
  <path d="M295.75,71.06c-7.15.3-12.72-7.18-6.98-12.79,3.56-3.23,9.61-3.4,13.33-.37,6.34,5.38.87,13.44-6.35,13.16Z" fill="#c62b26" stroke-width="0"/>
  <path d="M61.04,110.45c.35,0,.7-.13,1.04-.19,1.83-4.26,3.71-8.5,5.44-12.8.38-.94.77-3.07.26-3.49,1.55,1.15,2.5,3.12,1.67,4.99-1.77,4.26-3.62,8.48-5.48,12.69-.11.25-.56.51-.85.51-5.14-.02-10.31.13-15.44-.05.32-.48.48-1.18.85-1.62l12.51-.03Z" fill="#c62b26" stroke-width="0"/>
  <path d="M66.32,71.2c4.08,0,8.15-.05,12.23.01.96.01,1.38-.31,1.72-1.16.99-2.48,2.02-4.94,3.13-7.36.59-1.29,1.06-3.15.43-4.35,1.32.42,1.98,1.96,1.97,3.09-.01.75-.07,1.59-.35,2.29-1.16,2.89-2.4,5.74-3.66,8.58-.14.32-.59.73-.9.73-5.1.05-10.21.03-15.53.03.37-.7.67-1.29.98-1.87Z" fill="#c62b26" stroke-width="0"/>
  <path d="M142.69,75.76c4.97,0,9.94-.06,14.91.02,3.12.05,5.66,1.97,6.38,4.56.44,1.6.1,3.11-.57,4.58-5.34,11.77-10.67,23.55-16.04,35.31-2.78,5.74-4.18,10.81-11.42,11.61-2.21.25-4.43.4-6.65.41-7.85.05-15.7.06-23.54-.02-4.79-.03-9.85-2.37-8.02-7.98,1.13-3.1,2.56-6.09,3.92-9.11,4.65-10.33,9.33-20.64,14-30.96,2.39-5.55,6.13-8.38,12.23-8.39,4.93-.12,9.88-.03,14.8-.04ZM124.37,119.81c2.72-.07,4.19-1.73,5.22-3.99,3.59-7.96,7.26-15.88,10.83-23.85.89-2.02.04-3.45-2.12-3.73-2.85-.37-5.03.87-6.3,3.65-3.6,7.95-7.19,15.91-10.77,23.88-.81,1.83-.28,3.28,1.34,3.74.59.17,1.21.21,1.81.31Z" fill="#225a8e" stroke-width="0"/>
  <path d="M410.48,132.26c-4.61.15-9.62-2.82-7.73-8.08,1.25-3.28,2.75-6.46,4.19-9.66,4.59-10.2,9.19-20.4,13.82-30.58,1.32-2.9,3.03-5.62,6.14-6.85,1.78-.7,3.76-1.24,5.65-1.27,10-.12,20.01-.11,30.02-.04,3.26.02,5.81,2.07,6.48,4.83.36,1.47,0,2.86-.59,4.18-5.93,13.12-11.88,26.23-17.84,39.33-2.13,4.91-5.93,8.12-11.37,8.14s-16.08,0-16.08,0h-12.7ZM429.44,119.76c2.16,0,3.81-1.17,4.79-3.26,3.77-8.14,7.48-16.31,11.16-24.49.91-2.04.09-3.48-2.04-3.76-2.84-.38-5.03.76-6.28,3.5-3.66,8-7.26,16.04-10.85,24.07-.91,2.35.01,3.91,3.23,3.94Z" fill="#225a8e" stroke-width="0"/>
  <path d="M335.84,132.27c8.5-18.67,16.9-37.12,25.36-55.78.29-.64.62-.83,1.29-.83,11.76.02,23.52,0,35.27.03,5.43-.19,10.16,3.14,7.79,8.91-3.34,7.59-6.78,15.13-10.25,22.66-1.65,3.59-4.49,5.57-8.52,5.69-1.57.05-3.15.17-4.72.18-5.59.02-11.18.02-16.76,0-.68,0-1,.18-1.29.82-2.63,5.81-5.31,11.6-7.94,17.42-.31.7-.68.93-1.44.92-6.2-.04-12.41-.02-18.79-.02ZM374.44,100.65c1.2,0,2.4.03,3.59-.02.27-.01.69-.2.79-.42,1.27-2.83,2.55-5.66,3.7-8.53.69-1.72-.26-3.22-2.1-3.4-1.39-.14-2.8-.12-4.2-.1-.26,0-.65.27-.76.51-1.73,3.78-3.42,7.58-5.12,11.37-.21.46-.09.61.4.6,1.23-.02,2.47,0,3.7,0Z" fill="#225a8e" stroke-width="0"/>
  <path d="M157.39,132.27c1.81-3.99,3.58-7.69,5.32-11.66.29-.68.66-.87,1.37-.87,5.59.03,11.17.05,16.76,0,1.74-.01,3.47-.23,5.21-.37,1.5-.12,2.57-.95,3.21-2.25.79-1.62,1.5-3.29,2.14-4.98.49-1.29.18-2.44-1.08-3.08-2.31-1.16-4.71-2.12-7.1-3.11-9.82-4.04-13.7-3.87-8.37-15.37,1.24-2.88,2.59-5.72,3.84-8.6,1.66-3.83,4.7-5.71,8.71-5.98,3.75-.26,7.53-.27,11.29-.31,5.96-.05,11.85,0,17.82-.01-.17.43-.27.74-.41,1.04-1.62,3.57-3.27,7.14-4.86,10.72-.26.58-.59.71-1.16.71-5.07.04-10.15-.16-15.21.13-1.65.11-2.37,1.19-2.96,2.61-1.08,2.28-.95,2.84,1.44,3.8,4.36,1.74,8.99,2.88,13.15,5.09,4.08,2.21,5.18,4.89,3.76,9.29-.67,2.07-1.62,4.05-2.5,6.04-1.34,3.06-2.65,6.14-4.08,9.16-2.1,4.43-5.61,6.97-10.53,7.38-11.93,1.07-23.63.5-35.74.62Z" fill="#225a8e" stroke-width="0"/>
  <path d="M259.29,75.76c-6.66,14.65-13.3,29.23-20,43.97h15.23c-.82,1.8-1.57,3.43-2.31,5.06-1.03,2.27-2.08,4.53-3.08,6.81-.22.51-.49.69-1.06.69-11.11-.02-22.21-.02-33.32,0-.82,0-.91-.19-.58-.9,8.34-18.29,16.66-36.58,24.98-54.88.22-.49.41-.85,1.08-.84,6.36.1,12.7-.11,19.05.09Z" fill="#225a8e" stroke-width="0"/>
  <path d="M306.32,75.76c-8.33,18.47-16.77,36.83-25.11,55.29-.43.96-.92,1.27-1.97,1.26-5.76-.06-11.51-.03-17.27-.03-.33,0-.66,0-1.13,0,.97-2.13,1.88-4.14,2.79-6.15,7.51-16.52,15.02-33.04,22.53-49.56.24-.52.43-.9,1.15-.9,6.34.1,12.67-.11,19,.09Z" fill="#225a8e" stroke-width="0"/>
  <path d="M336.57,96.76c-1.99,4.37-3.9,8.59-5.85,12.79-.11.23-.49.48-.75.48-8.01.02-16.02.02-24.03,0-.06,0-.12-.04-.25-.1.11-.28.2-.56.33-.83,1.79-3.87,3.57-7.74,5.39-11.59.15-.32.58-.73.88-.73,8.04-.04,16.09-.03,24.29-.03Z" fill="#225a8e" stroke-width="0"/>
  <path d="M5.83,130.39c14.06-30.87,28.11-61.74,42.12-92.62.29-.64.62-.91,1.36-.9,20.46.02,40.91.02,61.37.03,1.16,0,2.32.15,3.48.28,2.31.26,4.4,1.18,6.41,2.31,4.35,3.7,4.77,8.51,2.51,13.55-3.98,8.94-8.06,17.84-12.09,26.76-1.94,4.3-5.23,6.6-9.95,6.85-.77.04-1.54.15-2.5.25.69.74,1.28,1.33,1.83,1.97,2.43,2.83,3.09,6.08,1.86,9.56-1,2.82-2.25,5.56-3.48,8.28-2.38,5.25-4.7,10.53-7.3,15.67-3.18,6.29-8.44,9.79-15.46,10.52-2.92.3-5.86.58-8.79.59-20.84.05-41.69.03-62.53.03M66.32,71.2c-.3.58-.61,1.16-.98,1.87,5.32,0,10.42.01,15.53-.03.31,0,.76-.41.9-.73,1.26-2.84,2.5-5.7,3.66-8.58.28-.7.31-1.55.31-2.29-.01-1.39-1.61-2.86-1.61-2.86,0,0-1.08-.92-2.47-.93-2.9-.08-5.81-.1-8.72-.08-.32,0-.78.37-.93.69-1.95,4.3-3.98,8.56-5.7,12.96ZM47.97,111.92c.22.09.45.25.67.25,4.83.01,9.65.02,14.48-.01.29,0,.74-.26.85-.51,1.86-4.22,3.71-8.44,5.48-12.69.66-1.6.2-3.09-.95-4.35-.16-.17-.72-.63-.72-.63,0,0-1.27-.66-1.95-.72-2.04-.19-4.1-.17-6.15-.2-1.56,0-2.89-.12-3.2.17s-1.02,1.85-1.47,2.85c-2.36,5.26-4.78,10.55-7.04,15.85Z" fill="#225a8e" stroke-width="0"/>
</svg>