<?xml version="1.0" encoding="utf-8"?>
<!-- Generator: Adobe Illustrator 24.0.0, SVG Export Plug-In . SVG Version: 6.00 Build 0)  -->
<svg version="1.2" baseProfile="tiny" id="Layer_1" xmlns="http://www.w3.org/2000/svg" xmlns:xlink="http://www.w3.org/1999/xlink"
	 x="0px" y="0px" width="600px" height="133px" viewBox="0 0 600 133" xml:space="preserve">
<g>
	<g>
		<path fill="#191815" d="M487.44,44.47c-9.26-7.63-19.63-9.3-30.65-4.33c-6.61,2.98-11.08,8.39-14.42,14.7
			c-4.04,7.61-5,15.78-4.04,24.24c0.06,0.57-0.08,0.9-0.51,1.24c-2.96,2.34-6.37,3.41-10.08,3.77c-5.91,0.57-10.78-1.42-14.65-5.85
			c-1.9-2.18-2.83-4.75-2.84-7.65c-0.02-7.41,5.11-13.68,12.1-15.01c5.56-1.05,11.73,3.95,9.92,9.5c-0.38,2.06-0.89,4.1-1.02,6.19
			c0.1,0.01,0.19,0.03,0.28,0.05c0.34-2.09,0.67-4.17,1.01-6.25c0.9-4.76,2.62-9.21,5.23-13.32c0.89-1.39,1.75-2.8,2.59-4.22
			c0.77-1.29,1.44-2.62,1.84-4.09c0.66-2.44-0.05-4.07-2.29-5.25c-0.93-0.49-1.91-0.84-2.93-1.04c-5.55-1.1-11.13-1.24-16.62,0.02
			c-13.55,3.11-23.2,10.85-27.91,24.21c-0.09,0.25-0.12,0.54-0.4,0.69c-2.02,1.04-3.99,2.2-6.18,3.05c0-0.18-0.02-0.27,0.01-0.35
			c1.25-4.5,3.05-8.77,5.72-12.63c0.78-1.14,1.51-2.3,2.06-3.57c0.33-0.78,0.51-1.55,0.3-2.41c-0.43-1.83-1.62-3.13-3-4.28
			c-2.25-1.88-4.8-3.27-7.51-4.37c-7.79-3.17-15.89-3.86-24.09-2.37c-12.41,2.26-21.35,9.17-26.69,20.63
			c-0.6,1.28-1.04,2.65-1.59,4.05c-0.16-0.39-0.3-0.7-0.41-1.01c-2.12-6.06-5.71-11.11-10.79-15c-9.04-6.9-18.98-8.42-29.47-3.84
			c-6.69,2.92-11.18,8.32-14.65,14.58c-0.55,1-1.03,2.04-1.55,3.08c-0.07-0.09-0.12-0.14-0.14-0.19c-0.05-0.18-0.1-0.35-0.15-0.53
			c-0.97-3.73-2.48-7.21-4.73-10.37c-1.99-2.81-4.3-5.33-7.46-6.79c-6.71-3.08-13.18-2.15-19.35,1.58c-0.64,0.38-0.87,0.45-1.24-0.3
			c-0.98-2.06-2.65-3.25-4.96-3.42c-2.45-0.18-4.83,0.31-7.16,0.94c-4,1.08-8.02,1.72-12.17,1.27c-2.29-0.24-4.59-0.38-6.89-0.11
			c-1.5,0.18-2.96,0.48-4.4,0.91c-0.24,0.07-0.53,0.11-0.44,0.45c0.12,0.44,0.41,0.12,0.58,0.08c0.57-0.13,1.12-0.33,1.68-0.47
			c3.42-0.87,6.59,0.29,8.64,3.17c0.61,0.85,1.09,1.77,1.46,2.75c1.56,4.05,2.02,8.32,2.33,12.59c0.57,7.87,0.35,15.73-0.21,23.6
			c-0.72,10.14-1.87,20.24-2.91,30.34c-0.08,0.81-0.05,1.65,0.28,2.45c0.12-0.99,0.08-1.97,0.12-2.95c0.19-4.37,2.44-7.46,6.26-8.69
			c1.14-0.37,2.32-0.53,3.52-0.63c2.54-0.22,4.8,0.75,7.11,1.56c10.59,3.71,20.1,1.82,28.43-5.63c4.13-3.69,7.03-8.28,9.12-13.4
			c0.27-0.65,0.54-1.31,0.85-2.1c0.14,0.43,0.22,0.69,0.3,0.95c1.83,6.25,5.18,11.56,9.86,16.09c10.5,10.18,26.08,9.76,35.55,2.75
			c5.69-4.2,9.52-9.79,11.98-16.35c0.31-0.81,0.58-1.64,0.93-2.62c0.15,0.37,0.26,0.57,0.34,0.79c2.23,6.41,6.11,11.68,11.28,16.02
			c5.6,4.7,12.03,7.31,19.39,7.51c3.96,0.11,7.72-0.84,11.45-1.99c3.3-1.01,6.54-2.27,9.98-2.77c4.66-0.67,8.04,2.68,7.45,7.3
			c-0.39,3.08-1.23,6.04-2.13,9.01c-0.08,0.28-0.32,0.57,0.08,0.97c0.15-0.48,0.28-0.84,0.39-1.21c1.33-4.4,2.4-8.84,2.12-13.52
			c-0.32-5.48-1.01-10.9-2.09-16.29c-1.07-5.29-1.99-10.59-1.76-16.02c0.11-2.49,0.47-4.93,1.46-7.25c0.64-1.5,1.63-2.71,2.94-3.9
			c-1.31,6.05-1.3,11.96-0.16,17.86c1.55,7.97,5.3,14.7,11.61,19.88c6.84,5.62,14.89,7.44,23.55,7.05c2.73-0.13,5.28-1.02,7.52-2.65
			c1.8-1.3,2.96-3.01,3.27-5.22c0.18-1.24,0.05-2.5-0.03-3.76c-0.13-2.23-0.32-4.46-0.09-6.7c0.21-2.15,0.75-4.21,1.46-6.48
			c0.18,0.55,0.28,0.87,0.37,1.18c1.53,5.49,4.3,10.29,8.11,14.53c8.68,9.63,20.47,11.67,30.88,8.05
			c6.43-2.23,11.11-6.69,14.75-12.3c4.55-7,6.32-14.77,6.35-23.02C499.5,60.78,495.92,51.45,487.44,44.47z M250.45,81.45
			c-2.38,2.43-5.14,4.03-8.65,4.05c-1.49,0-1.5,0-1.78-1.43c-0.75-3.93-0.97-7.9-1.04-11.88c-0.08-4.32,0.03-8.63,0.35-12.94
			c0.04-0.55,0.23-0.9,0.71-1.17c3.05-1.67,8.43-2.24,11.8,2.03C256.68,66.23,256.11,75.64,250.45,81.45z M309.26,83.94
			c-1.96,3.48-5.35,4.25-8.63,1.95c-1.22-0.86-2.19-1.96-2.98-3.21c-3.37-5.32-4.89-11.09-4.19-17.39c0.24-2.13,1.01-4.1,2.25-5.85
			c2.12-3.01,5.94-3.58,8.88-1.35c1.74,1.32,2.8,3.14,3.61,5.12c1.69,4.09,2.5,8.36,2.67,12.6
			C311.05,78.76,310.66,81.45,309.26,83.94z M375.02,66.26c-2.85-0.22-5.68-0.51-8.52-0.75c-1.18-0.11-2.32-0.07-3.31,0.74
			c-1.22,1.02-1.37,2.32-1.03,3.75c0.35,1.41,0.96,2.71,1.63,3.98c0.92,1.76,1.8,3.54,2.08,5.55c0.24,1.79-0.5,2.87-2.29,3.07
			c-2.22,0.25-4.17-0.48-5.88-1.86c-4.46-3.58-6.5-10.72-4.49-16.09c1.67-4.46,5.17-6.98,9.59-8.21c8.01-2.22,15.72,1.79,18.82,9.74
			C379.36,66.46,377.18,66.42,375.02,66.26z M475.91,84.15c-1.89,3.19-5.02,3.94-8.16,1.96c-1-0.63-1.86-1.41-2.55-2.36
			c-4.14-5.81-5.9-12.23-4.82-19.33c0.28-1.8,1.03-3.45,2.07-4.96c2.09-3,5.85-3.61,8.81-1.46c1.77,1.3,2.84,3.1,3.66,5.07
			c1.84,4.4,2.66,9.01,2.78,14.81C477.76,79.44,477.24,81.89,475.91,84.15z"/>
		<path fill="#191815" d="M494.9,108.19c1.77-4.59,3.76-9.09,5.7-13.6c3.62-8.42,7.42-16.76,10.46-25.41
			c1.72-4.89,3.08-9.86,3.5-15.05c0.17-2.11,0.23-4.22-0.43-6.28c-0.26-0.8-0.61-1.54-1.16-2.17c-0.83-0.96-1.74-1.58-3.17-1.43
			c-2.41,0.26-4.84,0.25-7.26,0.04c-0.27-0.02-0.55-0.02-0.82-0.07c-0.18-0.03-0.51,0.01-0.45-0.31c0.05-0.31,0.34-0.19,0.53-0.17
			c10.75,1.18,20.58-2.06,30.19-6.32c1.28-0.57,2.59-1.11,3.9-1.6c1.51-0.57,2.71-0.05,3.41,1.4c0.57,1.19,0.6,2.49,0.74,3.76
			c0.39,3.31,0.52,6.65,1.11,9.94c0.83,4.62,2.48,8.94,4.98,12.93c0.13,0.2,0.28,0.39,0.45,0.62c3.42-4.63,5.64-9.69,6.56-15.33
			c0.4-2.46,0.37-4.94,0.52-7.42c0.05-0.89,0.21-1.76,0.52-2.6c0.63-1.71,1.52-2.34,3.34-2.25c2.48,0.12,4.97,0.19,7.43,0.47
			c5.06,0.57,9.79-0.63,14.43-2.44c0.36-0.14,0.88-0.63,1.11-0.26c0.33,0.54-0.44,0.58-0.73,0.82c-1.51,1.29-1.89,3.01-1.97,4.86
			c-0.29,6.09,0.21,12.11,1.45,18.07c1.74,8.38,3.72,16.7,6.61,24.78c0.9,2.51,1.94,4.95,3.46,7.16c0.65,0.94,1.39,1.78,2.39,2.38
			c0.44,0.27,0.7,0.25,1.07-0.16c1.81-2.04,3.53-4.16,5.09-6.39c0.12-0.17,0.21-0.56,0.5-0.38c0.39,0.25-0.02,0.48-0.14,0.66
			c-4.87,6.9-10.65,12.88-17.74,17.53c-2.15,1.42-4.41,2.63-7.02,3.03c-2.13,0.32-3.7-0.51-4.85-2.25c-1.18-1.8-1.69-3.84-2.06-5.93
			c-0.89-5.05-1.06-10.16-1.47-15.26c-0.3-3.69-0.53-7.39-1.37-11.22c-4.29,12.44-11.18,23.22-18.79,33.67
			c-0.14-0.16-0.23-0.24-0.29-0.33c-4.27-6.63-8.76-13.14-12.57-20.06c-2.05-3.72-3.9-7.52-4.99-11.82
			c-1.03,1.85-1.72,3.66-2.29,5.52c-1.14,3.71-1.64,7.53-1.82,11.39c-0.17,3.52-0.28,7.04-0.43,10.56c-0.05,1.1-0.11,2.19-0.48,3.25
			c-0.8,2.27-2.36,3.23-4.76,2.93c-1.68-0.21-3.28-0.71-4.85-1.33c-2.05-0.81-4.12-1.6-6.35-1.71c-3.52-0.18-6.58,1.16-9.48,2.98
			c-0.52,0.32-1.01,0.69-1.51,1.04C495.03,108.34,494.96,108.26,494.9,108.19z"/>
		<path fill="#191815" d="M494.32,110.36c-1.04,2.78-2.08,5.56-3.13,8.34c-0.12-0.04-0.23-0.09-0.35-0.13
			c0.96-2.86,2.1-5.66,3.25-8.46C494.17,110.19,494.25,110.27,494.32,110.36z"/>
		<path fill="#191815" d="M495.1,108.41c-0.14,0.34-0.28,0.67-0.42,1.01c-0.08-0.05-0.15-0.1-0.23-0.16
			c0.15-0.36,0.3-0.72,0.45-1.08C494.96,108.26,495.03,108.34,495.1,108.41z"/>
		<path fill="#191815" d="M494.1,110.11c0.12-0.28,0.23-0.56,0.35-0.84c0.08,0.05,0.15,0.1,0.23,0.16
			c-0.12,0.31-0.24,0.62-0.35,0.93C494.25,110.27,494.17,110.19,494.1,110.11z"/>
	</g>
	<g>
		<path fill="#191815" d="M39.69,120.55c-0.83-0.06-1.6-0.39-2.45-0.42c-1.45-0.04-2.51,0.9-3.78,1.29
			c-0.4,0.13-0.67,0.76-0.02,1.23c0.68,0.5,1.29,1.1,1.96,1.67c-0.12,0.07-0.19,0.14-0.22,0.13c-1.9-0.85-3.82-0.54-5.76-0.13
			c-1.38,0.29-2.76,0.38-4.21,0.34c-2.87-0.08-5.75,0.29-8.63,0.48c-3.91,0.26-7.61-0.59-11.14-2.21c-1.58-0.73-3.12-1.56-4.68-2.32
			c-0.34-0.16-0.5-0.37-0.54-0.75c-0.14-1.1-0.24-2.19-0.22-3.29c0.05-3.85-0.11-7.73,1.02-11.48c0.63-2.07,1.33-4.13,2.04-6.17
			c0.19-0.56,0.18-1.05-0.02-1.6c-1.5-4.1,0.22-7.22,3.4-8.89C6.91,88.2,7.4,88.05,7.93,88c3.07-0.25,5.63-1.73,8.11-3.4
			c0.66-0.44,1.09-1.09,1.29-1.85c1.58-5.92,4.65-11,8.68-15.56c0.77-0.87,1.44-1.83,2.21-2.7c0.45-0.51,0.48-1,0.26-1.6
			c-0.34-0.91-0.9-1.67-1.55-2.36c-1.3-1.39-2.63-2.75-3.93-4.13c-0.57-0.6-1.07-1.26-1.41-2.03c-0.69-1.53-0.05-2.82,1.59-3.2
			c0.86-0.2,1.73-0.1,2.55,0.14c3.74,1.08,6.91,3.08,9.53,5.95c0.08,0.09,0.14,0.21,0.23,0.29c0.38,0.34,0.36,1.13,0.86,1.18
			c0.45,0.04,0.94-0.38,1.43-0.56c3.35-1.24,6.8-2.19,10.07-3.68c5.9-2.69,10.86-6.42,14.47-11.91c3.07-4.66,6.82-8.73,11.41-11.98
			c5.51-3.89,11.67-6.08,18.31-7.09c4.11-0.63,8.24-0.75,12.38-0.72c0.85,0.01,1.15-0.31,1.19-1.1c0.05-0.95,0-1.9-0.1-2.84
			c-0.47-4.53,0.04-8.98,0.98-13.4c0.17-0.81,0.47-1.59,0.96-2.26c0.62-0.83,1.32-1,2.25-0.53c0.84,0.42,1.48,1.09,2.08,1.78
			c1.8,2.06,3.27,4.36,4.68,6.69c2.48,4.11,4.94,8.23,7.37,12.37c0.4,0.68,0.65,0.86,1.41,0.39c2.07-1.3,4.09-2.69,6.33-3.71
			c1.35-0.62,2.74-1.08,4.24-1.02c0.42,0.01,0.6-0.09,0.62-0.54c0.14-2.61,1.03-5.02,2.07-7.37c1.29-2.92,2.88-5.67,4.85-8.19
			c0.96-1.22,2.01-2.35,3.43-3.05c0.06,0,0.12,0,0.18,0c1.14,0.41,1.79,1.27,2.26,2.33c1.16,2.61,1.6,5.39,1.92,8.18
			c0.39,3.38,0.59,6.77,0.26,10.18c-0.11,1.17-0.5,2.26-0.79,3.39c-0.06,0.22-0.36,0.54,0.17,0.6c2.25,0.25,3.83,1.67,5.41,3.08
			c0.51,0.46,0.98,0.45,1.68,0.39c3-0.24,6.06-0.62,8.91,0.88c1.19,0.63,1.81,1.45,1.75,2.91c-0.16,3.37-1.19,6.47-2.63,9.47
			c-0.06,0.14-0.16,0.28-0.27,0.36c-1.4,1.03-1.53,2.4-1.12,3.94c0.23,0.84,0.18,1.7,0.16,2.56c-0.01,0.46,0.07,0.73,0.6,0.82
			c2.05,0.36,3.51,1.5,4.34,3.42c0.39,0.9,1.06,1.54,1.92,2.02c0.88,0.5,1.7,1.1,2.39,1.85c1.41,1.55,1.43,3.56,0.06,5.16
			c-0.37,0.44-0.84,0.82-1.01,1.43c2,0.71,3.74,1.83,5.22,3.33c1.46,1.49,2.26,3.28,2.04,5.4c-0.1,0.98,0.26,1.68,0.93,2.34
			c2.82,2.79,5.32,5.84,7.32,9.27c2.19,3.74,3.15,7.84,3.75,12.08c0.51,3.58-0.46,6.85-1.81,10.07c-0.33,0.79-0.28,1.48-0.03,2.28
			c1.1,3.57,0.83,7.08-0.85,10.41c-0.9,1.78-2.43,2.8-4.45,2.98c-0.76,0.07-1.53,0.14-2.29,0.1c-1.2-0.06-2.35-0.1-2.73,1.45
			c-0.13-0.16-0.18-0.19-0.19-0.24c-0.18-0.71,0.34-1.72-0.93-1.96c-0.76-0.15-1.41-0.62-2.29-0.37c-1.72,0.49-3.48,0.2-5.2-0.07
			c-0.77-0.12-1.24-0.07-1.25,0.85c0,0.18,0.04,0.5-0.24,0.52c-0.36,0.03-0.33-0.33-0.33-0.54c0.02-0.98-0.43-1.59-1.23-2.16
			c-0.81-0.58-1.42-1.43-2.19-2.08c-0.83-0.71-1.03-0.6-1.21,0.45c-0.04,0.23,0.02,0.57-0.31,0.58c-0.38,0.02-0.25-0.35-0.29-0.56
			c-0.22-0.99-0.18-2.11-1.35-2.63c-0.12-0.05-0.18-0.32-0.18-0.49c-0.14-3.19,0.26-6.21,2.42-8.8c1.12-1.34,2.53-1.88,4.19-1.93
			c0.79-0.02,0.92-0.23,0.5-0.92c-0.95-1.56-1.37-3.29-1.69-5.09c-0.21-1.15-1.75-1.03-2.59-1.65c-0.42-0.31-0.66,0.15-0.9,0.4
			c-1.36,1.46-2.72,2.9-4.65,3.65c-0.52,0.21-0.87,0.66-1.03,1.23c-0.06,0.24-0.15,0.47-0.24,0.69c-1.82,4.64-7.18,5.83-10.83,2.37
			c-0.69-0.65-1.3-1.38-1.95-2.08c-0.54-0.59-1.1-1.15-1.8-1.56c-1.09-0.64-2.11-0.86-3.32-0.1c-2.1,1.31-4.31,2.44-6.59,3.43
			c-0.24,0.1-0.58,0.07-0.39,0.6c0.79,2.14,0.37,3.31-1.54,4.63c0.48,0.5,0.94,1.01,1.44,1.48c3.24,3.13,6.48,6.26,9.74,9.37
			c0.44,0.42,0.52,0.63,0.03,1.1c-4.02,3.83-8.01,7.68-11.98,11.55c-0.45,0.44-0.68,0.36-1.09-0.03
			c-3.98-3.86-7.97-7.71-11.99-11.54c-0.46-0.44-0.39-0.65,0.03-1.05c3.46-3.3,6.89-6.63,10.34-9.95c0.24-0.23,0.49-0.45,0.79-0.73
			c-1.38-0.61-2.26-1.52-2.43-2.97c-0.05-0.38-0.19-0.43-0.54-0.35c-2.97,0.62-5.98,0.48-8.98,0.51c-0.46,0-1.2-0.27-1.32,0.21
			c-0.17,0.69-0.33,1.54,0.25,2.19c0.34,0.38,0.77,0.69,1.06,0.93c-0.01,0.35-0.14,0.31-0.19,0.29c-1.13-0.35-2.17-0.51-3.42-0.05
			c-0.98,0.37-2.01,0.23-1.67,1.72c-0.68,0.67-0.15,1.1,0.3,1.56c0.28,0.28,0.52,0.6,0.82,0.96c-0.41,0.07-0.68-0.16-0.97-0.26
			c-0.62-0.21-1.27-0.41-1.87-0.07c-1.48,0.83-3,0.65-4.56,0.35c-0.29-0.06-0.71-0.35-0.87,0.14c-0.17,0.54-0.78,1.01-0.3,1.68
			c0.3,0.41,0.58,0.85,0.85,1.41c-1.55-0.82-2.77-0.04-4.06,0.59c-0.94,0.46-1.99,0.29-2.99,0.09c-0.71-0.14-0.99,0.01-1.08,0.83
			c-0.14,1.4-0.1,2.67,1.25,3.72c-0.85,0.12-1.39-0.18-1.96-0.32c-1.22-0.29-1.66,0.04-1.68,1.25c0,0.18,0.05,0.4-0.03,0.54
			c-0.84,1.49,0.11,2.4,1.04,3.34c0.18,0.18,0.43,0.35,0.5,0.9c-1.84-1.2-3.26-0.34-4.71,0.64c-0.63,0.42-1.43,0.44-2.21,0.49
			c-3.43,0.22-6.7-0.49-9.91-1.58c-3.68-1.25-7.47-1.26-11.27-0.88c-2.93,0.29-5.6-0.33-7.96-2.12c-0.72-0.54-1.32-1.18-1.72-2
			c-4.63-9.6-9.34-19.16-13.33-29.06c-0.64-1.58-0.6-1.58-2.13-0.78c-3.52,1.82-6.89,3.97-10.72,5.18
			c-3.82,1.21-7.68,2.11-11.72,1.92c-0.69-0.03-0.9,0.16-0.87,0.86c0.07,1.46-0.23,2.86-0.89,4.17c-0.47,0.92-1.09,1.7-2.08,2.11
			c-0.18,0.07-0.45,0.09-0.39,0.41c0.05,0.24,0.25,0.22,0.42,0.28c0.71,0.23,1.25,0.76,1.88,1.12c1.97,1.15,3.92,2.38,6.35,2.33
			c3.07-0.05,5.94,0.76,8.6,2.25c1.82,1.02,3.19,2.41,3.05,4.73c-0.02,0.39,0.18,0.49,0.51,0.62
			C38.62,119.25,39.43,119.58,39.69,120.55L39.69,120.55z M55.49,51.82c-0.19-0.13-0.3,0.02-0.41,0.14c-0.7,0.43-1.4,0.87-2.11,1.29
			c-2.32,1.38-4.67,2.69-7.26,3.5c-2.83,0.89-5.64,1.82-8.32,3.14c-0.95,0.47-1.92,0.93-2.97,1.15c-0.16-0.42,0.05-0.76,0.08-1.12
			c0.03-0.37,0.06-0.71-0.19-1.05c-2.23-3.08-4.95-5.49-8.71-6.55c-0.54-0.15-1.08-0.24-1.63-0.19c-0.79,0.07-1.2,0.5-1.26,1.3
			c-0.11,1.38,0.46,2.46,1.46,3.31c1.02,0.87,2.13,1.65,3.19,2.47c1.07,0.84,2.08,1.74,2.54,3.07c0.13,0.37,0.29,0.38,0.61,0.25
			c0.2-0.08,0.4-0.3,0.6-0.17c0.26,1.14,0.02,1.99-1.1,2.48c-0.3,0.13-0.54,0.4-0.77,0.65c-3.84,4.03-6.83,8.62-9.02,13.74
			c-0.21,0.49-0.45,1.02-0.39,1.81c0.82-1.09,1.51-2.01,2.21-2.94c1.19-1.56,2.36-3.14,3.82-4.46c0.63-0.58,1.27-1.18,2.31-1.39
			c-0.39,0.62-0.68,1.12-1.01,1.6c-2.56,3.76-5.48,7.21-8.75,10.38c-1.74,1.69-3.74,2.94-5.98,3.85c-1.8,0.72-3.68,1.14-5.5,1.75
			c-2.59,0.86-3.46,2.24-3.2,4.93c0.02,0.24-0.01,0.52,0.3,0.61c0.38,0.11,0.45-0.22,0.59-0.45c0.3-0.52,0.59-1.04,0.88-1.56
			c-0.28,1.53-0.71,2.99-1.24,4.41c-2.47,6.69-3.44,13.55-2.47,20.65c0.05,0.38,0,0.8,0.41,1.07c1.81,1.21,3.61,2.38,5.76,2.97
			c3.98,1.08,8.02,1.37,12.11,1.23c1.23-0.04,2.21-0.94,2.34-2.16c0.07-0.64,0-1.28-0.15-1.91c-0.39-1.59-1.49-2.54-2.86-3.29
			c-0.89-0.49-1.88-0.83-2.7-1.6c2.87,0.04,5.94,2.21,6.77,4.78c0.29,0.89,0.74,1.49,1.72,1.68c0.58,0.11,1.17,0.35,1.28,1.1
			c-1.36,0.03-2.97-0.84-3.73,1.25c2.51,0.14,4.96,0.52,7.33-0.4c2.41-0.93,2.92-3.23,1.21-5.16c-0.47-0.53-1.03-0.96-1.64-1.32
			c-1.12-0.66-2.34-1.04-3.62-1.27c0-0.08,0.01-0.15,0.01-0.23c1.11,0.02,2.19,0.21,3.24,0.57c2.19,0.74,3.89,1.94,4.13,4.48
			c0.01,0.14-0.01,0.28,0.21,0.33c0.98,0.2,2.65-1.09,2.76-2.1c0.14-1.29-0.37-2.29-1.37-3.02c-3.51-2.6-7.45-3.71-11.81-3.35
			c-1,0.08-1.97,0.43-3,0.29c0.4-0.24,0.83-0.36,1.25-0.49c0.14-0.05,0.3-0.11,0.31-0.3c0.01-0.21-0.17-0.23-0.31-0.27
			c-1.34-0.3-2.6-0.89-4.02-0.87c-0.98,0.01-1.96,0.1-2.93,0.21c-0.55,0.06-0.57-0.3-0.66-0.66c-0.15-0.58,0.31-0.4,0.56-0.44
			c1.03-0.15,2.06-0.28,3.09-0.41c-1.63-1.15-3.38-1.65-5.3-1.52c-0.85,0.06-1.67,0.38-2.53,0.27l0.02,0.02
			c0.34-0.79,1.04-1.07,1.81-1.15c0.92-0.1,1.82,0.02,2.73,0.26c1.2,0.32,2.4,0.34,3.26-0.78c1.19-1.55,1.65-3.32,1.55-5.25
			c-0.03-0.55-0.3-0.88-0.9-0.94c-0.73-0.08-1.45-0.23-2.18-0.35c-1.63-0.29-1.59-0.28-1.19-1.87c0.15-0.62,0.48-0.64,0.8-0.34
			c0.98,0.95,2.24,0.86,3.43,1.07c2.29,0.39,4.58,0.29,6.87,0.07c6.12-0.57,11.35-3.26,16.2-6.84c0.25-0.18,0.49-0.37,0.71-0.59
			c0.35-0.36,0.3-1.52-0.1-1.88c-0.44-0.39-0.72,0.13-1,0.3c-1.93,1.19-3.84,2.41-5.74,3.65c-1.52,0.99-3.12,1.81-4.83,2.41
			c-2.75,0.96-5.53,1.81-8.47,1.96c-0.21,0.01-0.56,0.17-0.58-0.21c-0.02-0.31,0.32-0.2,0.5-0.23c1.09-0.17,2.17-0.35,3.24-0.64
			c5.68-1.54,10.33-4.81,14.71-8.57c1.22-1.04,1.69-2.09,1.29-3.72c-1.09-4.43,0.18-8.29,3.23-11.59
			c3.57-3.85,7.35-7.47,11.61-10.56c0.8-0.58,1.38-1.25,1.69-2.2c0.35-1.07,0.81-2.11,1.46-3.05c0.26-0.37,0.52-0.76,1.11-1
			c-0.44,1.39-0.83,2.64-1.3,4.12c1.51-0.93,2.81-1.73,4.19-2.57c0.07,1.13-0.16,1.93-1.12,2.37c-6.4,3-11.32,7.77-15.82,13.06
			c-0.88,1.03-1.67,2.11-2.3,3.31c-0.34,0.66-0.57,1.35-0.61,2.1c-0.16,3,0.24,5.9,1.17,8.77c2.5,7.69,5.7,15.09,8.99,22.46
			c1.68,3.77,3.44,7.5,5.41,11.13c1.17,2.15,2.8,3.78,5.22,4.48c1.46,0.42,2.96,0.51,4.46,0.34c3.08-0.35,6.1-0.15,9.09,0.76
			c1.84,0.56,3.72,1.01,5.6,1.44c2.37,0.54,4.76,0.94,7.19,0.47c2.16-0.41,3.28-1.76,3.18-3.82c-0.06-1.27-0.46-2.41-1.32-3.35
			c-2.04-2.24-4.63-3.16-7.61-2.89c-0.82,0.08-0.96-0.04-0.96-0.82c0-0.7,0.21-0.93,0.89-0.85c0.42,0.05,0.86,0.01,1.29,0.01
			c3.6-0.04,6.15,1.73,7.99,4.67c0.27,0.44,0.46,0.34,0.77,0.16c0.79-0.47,1.17-1.59,0.95-2.78c-0.54-2.91-4.2-5.88-7.36-5.99
			c-0.52-0.02-1.07,0.1-1.55-0.25c2.45-0.87,4.43,0.8,6.71,1.4c-0.13-0.2-0.17-0.32-0.25-0.4c-4.15-4.54-11.61-5.51-16.08-1.86
			c-0.52,0.42-1.1,0.77-1.67,1.13c-0.33,0.21-0.57,0.18-0.79-0.23c-2.86-5.24-3.99-10.8-3.06-16.73c0.09-0.6,0.18-1.21,0.29-1.81
			c0.11-0.58-0.12-0.7-0.65-0.58c-0.96,0.21-1.92,0.42-2.89,0.54c-1.46,0.18-2.89,0.07-4.18-0.78c1.35,0.35,2.71,0.52,4.09,0.23
			c5-1.03,9.16-3.53,12.56-7.3c0.6-0.66,1.22-1.38,1.43-2.22c0.3-1.21,1.1-1.14,2-1.11c0.45,0.01,0.53,0.2,0.4,0.57
			c-0.65,1.95-1.63,3.69-3.32,4.95c-0.18,0.14-0.53,0.16-0.45,0.49c0.07,0.28,0.39,0.23,0.61,0.32c1.87,0.72,3.82,0.79,5.79,0.72
			c3.96-0.15,7.18-1.83,9.82-4.72c0.33-0.36,0.39-0.69,0.19-1.15c-0.6-1.37-1.22-2.74-1.7-4.16c-1.55-4.56-2.53-9.22-2.72-14.08
			c-0.21-5.17,0.08-10.24,1.38-15.28c1.87-7.27,5.08-13.8,10.07-19.43c0.2-0.23,0.42-0.48,0.43-0.79c0.04-1.53,0.09-3.06,0.09-4.59
			c0-0.78-0.49-1.15-1.23-1.21c-0.36-0.03-0.74-0.01-1.1,0.03c-3.16,0.39-6.27,1.04-9.37,1.78c-5.26,1.25-10.36,2.89-15.09,5.6
			c-1.32,0.76-2.74,1.37-4.11,2.04c-0.03-0.04-0.07-0.08-0.11-0.12c0.23-0.42,0.63-0.66,1-0.92c3.64-2.6,7.57-4.6,11.94-5.67
			c2.38-0.58,4.76-1.13,7.14-1.68c0.57-0.13,1.14-0.22,1.7-0.38c0.54-0.15,1.14-0.15,1.8-0.54c-3.02,0.06-5.8,0.46-8.54,1.14
			c-10.39,2.58-19.21,7.52-25.26,16.68c-1.78,2.71-3.72,5.32-5.64,7.93c-1.18,1.61-2.51,3.1-4.13,4.28
			c-0.69,0.5-1.41,0.95-2.27,1.03c1.03-1.06,2.05-2.11,3.07-3.16C55.34,52.02,55.42,51.92,55.49,51.82c0.05-0.03,0.1-0.06,0.14-0.09
			c-0.04-0.02-0.08-0.04-0.12-0.05C55.51,51.73,55.5,51.78,55.49,51.82z M160.71,46.86c-0.17,0.22-0.29,0.46-0.27,0.82
			c0.29-0.26,0.44-0.51,0.49-0.81c0.77-1.59,0.61-3.07-0.42-4.54c-0.25,0.31-0.64,0.46-0.32,0.89
			C161.04,44.32,161.08,45.56,160.71,46.86z M149.87,81.64c-0.19-0.14-0.41-0.27-0.58-0.44c-3.14-3.22-7.03-5.14-11.26-6.46
			c-1.2-0.37-2.41-0.66-3.69-0.64c0.45,2.74,3.36,7.33,5.56,8.9c1.23,0.88,2.41,0.87,3.67,0.1c0.96-0.59,1.65-1.42,2.21-2.47
			c0.72,1.97,1.42,3.83,1.67,5.82c0.27,2.18-0.68,3.53-2.82,4c-0.15,0.03-0.3,0.1-0.45,0.1c-0.43,0-0.43,0.2-0.37,0.57
			c0.18,1.12,0.26,2.25,0.42,3.37c0.57,3.72,2.11,6.9,5.31,9.07c3.67,2.49,7.52,1.06,8.46-3.25c1.85-8.45-0.63-16.5-8.89-23.27
			c-3.63-2.98-8-4.84-12.51-6.22c-1.21-0.37-2.45-0.7-3.75-0.61c0.26,1.19,0.56,2.23,2.05,2.09c0.06-0.01,0.12,0.03,0.18,0.05
			c5.12,1.48,9.59,4.12,13.61,7.56c0.53,0.46,1.04,0.96,1.36,1.6C149.98,81.55,149.92,81.6,149.87,81.64z M116,31.55
			c0.18,0.14,0.36,0.02,0.54,0c0.06,0.06,0.11,0.12,0.17,0.17c-1.94,1.51-3.88,3.03-5.92,4.63c0.9-2.85-1-5.17-0.82-7.77
			c-0.71,0.62-1.31,1.26-1.91,1.9c-1.15,1.23-1.23,1.72-0.46,3.22c0.2,0.38,0.44,0.73,0.69,1.08c0.38,0.52,1.03,0.99,1.1,1.54
			c0.07,0.58-0.72,0.99-1.07,1.52c-1.78,2.73-3.14,5.67-4.2,8.74c-1.15,3.35-2.6,6.64-2.96,10.19c-0.48,4.79-0.57,9.61,0.17,14.38
			c1.14,7.38,3.67,14.26,8.08,20.35c3.09,4.26,6.7,7.86,12.18,8.98c3.31,0.68,6.6,1.42,10,1.13c2.53-0.22,5.08-0.43,7.34-1.78
			c0.54-0.32,1.14-0.59,1.42-1.18c-4-2.04-6.79-5.44-9.99-8.65c0,1.59,0,2.99,0,4.38c-0.27-1.61-0.33-3.24-0.66-4.82
			c-1.21-5.83-2.7-11.61-3.08-17.59c-0.35-5.48-0.16-10.88,1.86-16.09c0.35-0.9,0.67-1.83,0.78-3c-0.73,0.84-1.33,1.52-2.03,2.33
			c0.03-0.3,0.02-0.46,0.06-0.6c0.69-2.58,4.62-4.9,7.18-4.22c0.48,0.13,0.92,0.34,1.23,0.76s0.21,0.81-0.14,1.15
			c-0.3,0.3-0.62,0.49-1.03,0.13c-0.84-0.75-1.84-0.61-3.11-0.53c4.28,4.71,9.45,7.72,14.91,10.32c0.07,0.02,0.13,0.04,0.2,0.05
			c-0.02-0.06-0.04-0.13-0.06-0.19c-0.07-0.2-0.14-0.4-0.2-0.61c-0.82-2.63-0.35-5.27,2.02-6.85c1.57-1.05,3.3-1.59,5.18-1.66
			c0.53-0.02,0.9-0.12,1.23-0.58c1-1.41,2.2-2.56,4.06-2.67c0.01,0,0.02-0.11,0.03-0.19c-0.72-0.14-1.44-0.29-2.16-0.42
			c-2-0.35-2.09-0.41-0.85-2.08c2.07-2.79,3.82-5.75,5.31-8.88c0.71-1.49,1.54-2.92,2.56-4.23c0.36-0.46,0.74-0.9,1.27-1.18
			c0.16-0.08,0.43-0.31,0.52,0.02c0.11,0.44,0.07,0.91-0.03,1.37c-0.1,0.42-0.45,0.2-0.68,0.26c-0.12,0.03-0.25,0.03-0.35,0.09
			c-0.43,0.26-0.88,0.58-0.98,1.06c-0.5,2.51-0.94,5.04-1.42,7.68c0.77-0.38,1.09-0.99,1.4-1.56c1.55-2.8,2.67-5.77,3.34-8.89
			c0.32-1.49,0.01-2.03-1.42-2.62c-1.87-0.77-3.84-0.67-5.8-0.66c-0.18,0-0.4-0.01-0.38,0.26c0.02,0.24,0.25,0.23,0.43,0.24
			c0.71,0.05,1.42,0.03,2.17,0.23c-0.45,0.72-1.03,0.87-1.72,0.8c-1.89-0.18-3.31-1.22-4.57-2.52c-1.16-1.2-2.53-1.87-4.19-1.63
			c-1.79,0.26-2.96-0.8-4.42-1.77c0.29-0.02,0.4-0.01,0.5-0.03c0.25-0.05,0.65,0.16,0.71-0.17c0.08-0.43-0.41-0.36-0.66-0.46
			c-1.28-0.51-2.55-1.03-3.84-1.51c-2.88-1.05-5.83-1.67-8.92-1.2c-2.16,0.33-4.04,1.38-5.91,2.43c-1.01,0.57-2.03,1.12-3.14,1.51
			c-1.74,0.62-4.27-0.31-5.08-2.31c-1.72-4.23-3.89-8.24-6.47-12.02c-0.83-1.22-1.7-2.41-2.87-3.33c-1.38-1.07-2.28-0.75-2.75,0.93
			c-0.04,0.15-0.07,0.3-0.09,0.45c-0.45,2.81-0.13,5.62,0.1,8.42c0.15,1.73,0.68,3.43,0.29,5.19c-0.42,1.88-0.91,3.74-1.44,5.59
			c-0.07,0.14-0.1,0.35,0.02,0.38c0.28,0.06,0.28-0.2,0.32-0.39c0.64-1.45,1.31-2.89,1.91-4.36c0.59-1.44,1.12-2.9,1.65-4.37
			c0.53-1.46,0.88-2.97,1.11-4.72c0.94,2.58,1.8,4.96,2.69,7.33c0.24,0.65,0.33,1.28,0.24,1.97c-0.27,2.02,0.38,3.9,0.8,5.95
			c1.18-0.8,2.23-1.51,3.38-2.29c-0.07,1.07-0.63,1.64-1.35,2.09c-0.69,0.44-1.44,0.82-2.03,1.41l0.02,0.03L116,31.55z
			 M184.28,105.79c0.24-0.1,0.34-0.18,0.46-0.18c0.73-0.05,1.47-0.08,2.2-0.11c0.54-0.02,1-0.11,1.29-0.67
			c2.17-4.14,3.21-8.49,2.21-13.11c-1.48-6.86-5.14-12.48-10.19-17.28c-0.59-0.57-0.94-0.58-1.37,0.15c-0.55,0.94-1.2,1.83-1.8,2.74
			c0.44-1.53,1.03-2.96,1.64-4.39c0.31-0.73,0.37-1.47,0.27-2.25c-0.37-2.71-4.04-6.09-6.77-6.23c-0.25-0.01-0.49-0.08-0.57,0.27
			c-0.73,2.89-3,4.25-5.42,5.46c-0.3,0.15-0.62,0.34-1,0.26c0.15-0.86,0.42-1.66,0.41-2.47s-0.29-1.62-0.43-2.43
			c-0.08-0.48-0.1-0.97-0.15-1.46c-0.01-0.17,0.05-0.34-0.15-0.48c-1.49-1.02-3.6-0.19-3.89,1.59c-0.22,1.36-0.34,2.73-0.13,4.11
			c0.44,2.98,1.61,5.7,2.99,8.33c1.25,2.37,2.13,4.86,2.82,7.44c0.61,2.26,0.76,4.51,0.05,6.78c-0.13,0.4-0.34,0.88-0.11,1.25
			c0.46,0.77,1.11,1.37,1.93,1.79c0.64,0.33,1.03-0.2,1.5-0.42c1.11-0.52,2.16-1.17,3.39-1.42c-0.84,0.68-1.73,1.25-2.6,1.88
			c-0.42,0.3-0.88,0.64-0.88,1.22c0,1.74-0.15,3.48,0.46,5.18c0.58,1.61,0.56,1.68,2.2,1.04c2.38-0.93,4.85-0.95,7.33-0.93
			c0.16,0,0.42-0.08,0.45,0.17c0.05,0.36-0.28,0.25-0.45,0.27c-1.49,0.19-2.97,0.46-4.4,0.91c-0.53,0.16-1.11,0.27-1.6,0.79
			c1.1,0.23,2.07,0.43,3.05,0.63c0.19,0.04,0.44-0.02,0.48,0.3c0.1,0.75-0.59,1.35-1.31,1.09c-2.24-0.82-4.54-1.21-6.93-1.09
			c-0.96,0.05-1.73,0.33-2.37,1.02c-1.73,1.88-2.76,4.1-3.07,6.63c-0.07,0.58,0.04,1.18,0.07,1.82c1.41-0.81,1.51-0.77,1.7,0.67
			c0.05,0.39,0.23,0.43,0.53,0.43c0.45,0.01,0.38-0.29,0.39-0.56c0.02-1.62,0.43-3.15,1.16-4.58c0.24-0.46,0.48-0.94,0.96-1.27
			c0.12,0.38-0.05,0.63-0.16,0.87c-0.98,2.09-0.86,4.29-0.72,6.49c0.04,0.63,0.29,1.19,0.76,1.62c0.38,0.35,0.75,0.68,1.15-0.01
			c0.16-0.27,0.44-0.43,0.79-0.33c0.33,0.09,0.41,0.35,0.4,0.64c-0.02,0.68,0.43,0.88,0.98,0.98c1.03,0.2,2.08,0.08,3.12,0.14
			c0.57,0.03,0.73-0.15,0.72-0.72c-0.05-2.15,0.53-4.17,1.28-6.15c0.15-0.4,0.33-0.79,0.64-1.1c0.18-0.18,0.41-0.26,0.67-0.13
			c0.26,0.13,0.34,0.35,0.27,0.61c-0.07,0.27-0.15,0.53-0.26,0.78c-0.78,1.76-0.79,3.63-0.76,5.5c0.01,0.83,0.54,1.31,1.29,1.61
			c0.72,0.29,1.22,0.08,1.65-0.53c0.15-0.22,0.29-0.59,0.71-0.4c0.32,0.15,0.48,0.41,0.43,0.74c-0.13,0.86,0.34,0.96,1.02,0.89
			c0.33-0.04,0.68,0.01,1.01-0.01c2.34-0.15,4.08-1.15,4.98-3.41c0.54-1.35,0.9-2.73,1-4.18c0.13-1.72,0.03-3.42-0.77-5.01
			c-0.37-0.74-0.88-1.21-1.73-1.31C186.2,106.14,185.31,105.96,184.28,105.79z M126.16,103.83c-0.31-0.29-0.62-0.31-0.9-0.4
			c-2.62-0.84-5.32-1.42-7.89-2.42c-7-2.72-12.81-6.96-17.06-13.24c-1.18-1.75-1.25-1.68-2.81-0.28c-2.42,2.18-5.29,3.19-8.53,3.34
			c-2.53,0.12-4.93-0.31-7.27-1.23c-0.44-0.17-0.94-0.49-1.4-0.2c-1.63,1.03-3.27,2.02-4.99,2.89c-0.64,0.32-0.73,1.13-0.66,1.81
			c0.06,0.55,0.68,0.39,1.02,0.58c0.21,0.12,0.46,0.17,0.68,0.26c8.08,3.21,16.31,5.94,24.84,7.72
			C109.43,104.38,117.7,104.78,126.16,103.83z M108.81,106.53c1.24,0.33,2.13,1.01,2.73,1.97c0.43,0.69,0.89,0.85,1.64,0.69
			c0.82-0.18,1.4-0.7,1.72-1.36c0.59-1.2,0.31-1.58-0.99-1.6c-2.03-0.04-4.03-0.29-6.03-0.64c-5.34-0.93-10.65-1.97-15.8-3.68
			c-1.15-0.38-2.22-0.28-3.28,0.25c-1.04,0.52-2.09,1.02-3.13,1.53c-0.73,0.36-1.18-0.27-1.4-0.66c-0.34-0.61,0.44-0.5,0.71-0.6
			c1.3-0.44,2.63-0.8,4.15-1.25c-1.2-0.47-2.19-0.87-3.18-1.26c-3.67-1.45-7.34-2.89-11-4.37c-0.63-0.25-0.85-0.22-0.83,0.54
			c0.02,1.02,0.09,2.01,0.51,2.95c0.82,1.83,1.78,3.63,3.28,4.93c1.12,0.97,1.62,1.77,0.73,3.07c-0.07,0.1-0.08,0.23-0.11,0.35
			c-0.31,1.72-0.15,1.86,1.51,1.42c0.53-0.14,1.07-0.28,1.6-0.43c1.63-0.46,3.29-0.54,4.91-0.1c3.44,0.92,6.62,2.26,8.43,5.64
			c0.26,0.48,0.63,0.9,0.98,1.33c0.77,0.92,1.73,1.43,2.97,1.37c0.61-0.03,1.23-0.01,1.84-0.01c0.85,0,1.47-0.35,1.82-1.15
			c0.18-0.41,0.41-0.76,0.88-0.86c0.92-0.2,1.11-0.86,1.09-1.66c-0.03-1.35-0.69-2.39-1.67-3.25c-1.71-1.49-3.74-2.29-5.94-2.72
			c-0.77-0.15-1.56-0.22-2.35-0.33c0.99-0.16,1.95-0.12,2.92-0.07c2.43,0.12,4.5,1.07,6.29,2.68c0.83,0.75,1.6,1.61,1.61,2.78
			c0,0.84,0.37,1.14,1.08,1.36c1.5,0.48,3.74-0.22,4.43-1.44c0.71-1.26,0.22-3.16-1.08-4.28
			C109.5,107.37,109.01,107.17,108.81,106.53z M129.87,56.35c-0.2-0.02-0.25,0.12-0.29,0.22c-0.17,0.42-0.36,0.85-0.49,1.28
			c-0.93,3.22-1.34,6.53-1.44,9.87c-0.16,5.39,0.75,10.67,1.74,15.94c0.42,2.26,1.1,4.34,2.79,6.05c1.94,1.96,3.81,3.99,5.94,5.75
			c0.63,0.53,1.3,1.03,2.01,1.45c1.23,0.72,2.79-0.18,2.83-1.61c0.03-1.07,0-2.14-0.01-3.22c0-0.24,0.06-0.49-0.21-0.65
			c-1.51-0.92-2.3-2.43-3.16-3.86c-2.31-3.83-4.18-7.88-6.04-11.94c-1.95-4.24-2.98-8.72-3.33-13.37
			C130.06,60.29,129.98,58.32,129.87,56.35z M154.45,64.14c0.18,0,0.55,0.02,0.91,0c2.62-0.2,5.16-0.67,7.38-2.2
			c0.99-0.68,1.74-1.55,1.89-2.8c0.23-1.85-0.08-2.13-1.94-1.89c-1.24,0.16-2.47,0.45-3.74,0.3c-0.71-0.08-1.28-0.36-1.66-0.99
			c-0.49-0.81-1-1.61-1.49-2.42c-0.18-0.29-0.33-0.54-0.76-0.55c-2.18-0.03-4.2,0.44-5.95,1.78c-2.94,2.25-2.62,6.09,0.64,7.85
			C151.15,63.98,152.68,64.21,154.45,64.14z M145.55,10.35c0.09,0.01,0.18,0.01,0.28,0.02c0.03,0.48,0.05,0.95,0.08,1.43
			c0.18,3.43,0.05,6.86-0.04,10.28c-0.02,0.89,0.35,1.3,1.17,1.43c0.24,0.04,0.49,0.07,0.72,0.13c0.33,0.08,0.43,0.01,0.53-0.37
			c1.11-4.22,1.47-8.49,1.04-12.83c-0.18-1.86-0.45-3.71-1.28-5.42c-0.95-1.95-2.23-2.14-3.7-0.56c-0.74,0.79-1.29,1.71-1.79,2.66
			c-1.84,3.54-3.06,7.32-4.23,11.12c-0.11,0.35-0.13,0.72-0.17,1.09c-0.1,0.94,0.7,0.66,1.15,0.79c0.66,0.19,0.49-0.36,0.49-0.67
			c0-0.87,0.18-1.7,0.45-2.51c0.74-2.23,1.94-4.25,2.91-6.4c0.8,0.76,0.94,1.56,0.49,2.56c-0.67,1.47-1.39,2.93-1.77,4.52
			c-0.47,1.97,0.32,3.44,2.09,3.95C144.51,17.83,144.78,14.05,145.55,10.35z M162.24,77.43c0,0.25-0.02,0.35,0,0.43
			c0.86,3.02,0.5,5.99-0.33,8.96c-0.24,0.87-0.6,1.57-1.4,2.05c-0.39,0.23-0.81,0.57-0.64,1.11c0.69,2.2,0.12,4.37-0.11,6.55
			c-0.04,0.36-0.27,0.83,0.03,1.04c0.32,0.22,0.77-0.04,1.13-0.21c1.74-0.86,2.93-2.28,3.92-3.89c0.83-1.36,1.38-2.79,1.21-4.43
			c-0.17-1.68-0.46-3.33-0.91-4.96C164.5,81.77,163.61,79.58,162.24,77.43z M131.18,131.16c0.18-0.16,0.34-0.29,0.49-0.44
			c3.44-3.32,6.87-6.64,10.32-9.94c0.39-0.37,0.47-0.57,0.03-0.98c-3.48-3.32-6.94-6.66-10.38-10.01c-0.38-0.37-0.58-0.33-0.94,0.01
			c-3.47,3.37-6.96,6.73-10.45,10.07c-0.3,0.29-0.38,0.44-0.03,0.78c3.52,3.37,7.02,6.75,10.52,10.13
			C130.87,130.91,131.01,131.02,131.18,131.16z M166.3,57.15c0.1,1.13-0.11,2.53-1.04,3.8c-1.03,1.4-1,1.47,0.65,1.86
			c2.03,0.47,4.02,0.39,5.87-0.69c1.79-1.05,2.4-3.01,1.33-4.62c-1.57-2.38-3.99-3.41-6.71-3.86c-0.44-0.07-0.57,0.09-0.38,0.51
			C166.39,54.99,166.28,55.89,166.3,57.15z M159.45,65.13c-1.91,1.65-2.3,10.9-0.71,15.07c0.88-0.86,1.75-1.72,2.52-2.67
			c0.49-0.6,0.59-1.11,0.18-1.84c-1.38-2.49-2.27-5.13-2-8.05C159.51,66.83,159.45,66.02,159.45,65.13z M147.35,70.98
			c1.63-1.57,3.22-2.91,4.34-4.68c0.57-0.89,0.44-1.49-0.45-1.86c-1.79-0.75-3.63-0.75-5.45-0.13c-0.73,0.25-0.9,0.78-0.56,1.46
			c0.42,0.85,0.88,1.67,1.3,2.51C146.93,69.07,147.38,69.84,147.35,70.98z M161.64,78.55c-1.3,1.67-2.83,2.79-4.4,3.84
			c-0.69,0.46-0.81,1.01-0.53,1.72c0.42,1.05,1.1,1.9,1.98,2.59c1.47,1.15,2.33,0.82,2.61-1C161.66,83.4,161.69,81.08,161.64,78.55z
			 M145.63,82.13c-1.18,1.62-2.68,2.64-4.17,3.64c-0.67,0.46-0.7,0.94-0.25,1.52c0.66,0.85,1.53,1.39,2.56,1.66
			c1.43,0.38,2.16-0.15,2.27-1.63C146.19,85.62,145.91,83.94,145.63,82.13z M166.13,69.59c1.62-0.91,3.51-2.39,4.13-3.24
			c0.72-0.97,0.56-1.68-0.5-2.23c-0.81-0.41-1.68-0.57-2.58-0.48c-1.32,0.14-1.62,0.59-1.37,1.89
			C166.06,66.86,166.51,68.17,166.13,69.59z M159.77,49.39c2.29-0.4,3.82,0.54,4.79,2.39c0.54,1.03,1.2,1.36,2.27,1.02
			c0.09-0.03,0.18-0.03,0.27-0.03c0.94,0.05,0.76-0.41,0.4-0.91c-0.91-1.22-2.1-2.05-3.59-2.38c-0.47-0.1-0.6-0.25-0.58-0.69
			c0.03-0.73,0.03-1.47,0-2.2c-0.04-0.83-0.32-1.57-1.17-2.22C162.32,46.57,161.2,48.02,159.77,49.39z M113.59,26.04
			c-0.93,1.17-1.76,2.22-2.6,3.26c-0.18,0.22-0.17,0.44-0.09,0.69c0.36,1.13,0.71,2.26,1.1,3.39c0.19,0.55,0.6,0.56,0.87,0.12
			c0.38-0.62,0.93-1.05,1.44-1.52c0.36-0.33,0.62-0.73,0.59-1.19c-0.08-1.07-0.26-2.13-0.62-3.32c-0.88,1.04-1.64,1.96-2.41,2.88
			c-0.07-0.05-0.15-0.09-0.22-0.14C112.15,28.82,113.65,27.89,113.59,26.04z M73.51,100.51c0.05,3.31,0.77,6.44,2.31,9.62
			c0.21-1.1,0.4-1.93,0.81-2.69c0.3-0.55,0.98-1.14,0.89-1.58c-0.12-0.55-0.88-0.95-1.33-1.44
			C75.11,103.24,74.34,101.86,73.51,100.51z M100.07,75.76c0.02-0.8-0.62-1.45-1.43-1.45c-0.79,0-1.48,0.67-1.47,1.44
			c0.01,0.73,0.65,1.37,1.41,1.41C99.37,77.18,100.05,76.55,100.07,75.76z M100.22,51.1c0-0.78-0.67-1.43-1.47-1.42
			c-0.75,0.01-1.42,0.64-1.45,1.37c-0.03,0.75,0.66,1.45,1.44,1.47C99.54,52.54,100.22,51.89,100.22,51.1z M104.33,39.82
			c-0.01-0.76-0.65-1.38-1.43-1.39c-0.81-0.01-1.48,0.66-1.46,1.45c0.01,0.8,0.69,1.42,1.52,1.38
			C103.75,41.21,104.34,40.6,104.33,39.82z M98.56,64.04c-0.01-0.78-0.68-1.4-1.5-1.38c-0.81,0.02-1.46,0.68-1.42,1.46
			c0.04,0.75,0.67,1.33,1.46,1.33C97.91,65.46,98.57,64.83,98.56,64.04z M103.26,87.76c0.69-0.07,1.13-0.45,1.12-1.12
			s-0.45-1.05-1.13-1.08c-0.64-0.03-1.22,0.55-1.15,1.15C102.18,87.39,102.62,87.72,103.26,87.76z M158.83,48.81
			c-0.81-0.38-1.71-0.56-2.5-1.03c-0.42-0.25-0.54,0.17-0.65,0.4c-0.21,0.43,0.22,0.32,0.4,0.37
			C156.97,48.78,157.88,48.87,158.83,48.81z M158.79,44.09c-0.12,0.3-0.47,0.43-0.33,0.72c0.07,0.15,0.45,0.17,0.56,0.03
			C159.23,44.59,158.93,44.4,158.79,44.09z M160.36,47.86c-0.02-0.02-0.03-0.04-0.05-0.06c-0.02,0.02-0.04,0.04-0.05,0.06
			c0.03,0.02,0.05,0.04,0.08,0.06C160.34,47.9,160.35,47.88,160.36,47.86z"/>
		<path fill="#191815" d="M39.67,120.57c0.03,0.04,0.06,0.07,0.09,0.11c-0.03,0-0.05,0-0.08,0c0.01-0.04,0.01-0.08,0.02-0.13
			C39.69,120.55,39.67,120.57,39.67,120.57z"/>
		<path fill="#FDE300" d="M26.05,115.39c1.27,0.24,2.49,0.61,3.62,1.27c0.61,0.36,1.17,0.79,1.64,1.32c1.71,1.93,1.2,4.23-1.21,5.16
			c-2.37,0.91-4.82,0.54-7.33,0.4c0.75-2.09,2.36-1.22,3.73-1.25c-0.11-0.75-0.71-0.99-1.28-1.1c-0.98-0.19-1.43-0.79-1.72-1.68
			c-0.83-2.57-3.9-4.74-6.77-4.78c0.82,0.77,1.81,1.11,2.7,1.6c1.36,0.75,2.47,1.7,2.86,3.29c0.15,0.63,0.22,1.27,0.15,1.91
			c-0.13,1.22-1.11,2.12-2.34,2.16c-4.09,0.13-8.14-0.15-12.11-1.23c-2.15-0.58-3.95-1.76-5.76-2.97c-0.4-0.27-0.35-0.68-0.41-1.07
			c-0.97-7.1,0-13.96,2.47-20.65c0.53-1.43,0.95-2.89,1.24-4.41c-0.29,0.52-0.58,1.05-0.88,1.56c-0.13,0.22-0.21,0.56-0.59,0.45
			c-0.3-0.09-0.27-0.37-0.3-0.61c-0.26-2.7,0.61-4.07,3.2-4.93c1.83-0.61,3.71-1.03,5.5-1.75c2.25-0.91,4.24-2.16,5.98-3.85
			c3.27-3.17,6.19-6.62,8.75-10.38c0.33-0.48,0.62-0.98,1.01-1.6c-1.04,0.22-1.67,0.81-2.31,1.39c-1.45,1.33-2.63,2.9-3.82,4.46
			c-0.7,0.92-1.39,1.85-2.21,2.94c-0.06-0.79,0.18-1.32,0.39-1.81c2.19-5.11,5.18-9.7,9.02-13.74c0.23-0.24,0.47-0.52,0.77-0.65
			c1.12-0.48,1.36-1.34,1.1-2.48c-0.2-0.12-0.41,0.09-0.6,0.17c-0.32,0.13-0.48,0.12-0.61-0.25c-0.46-1.33-1.47-2.23-2.54-3.07
			c-1.06-0.83-2.17-1.6-3.19-2.47c-1-0.85-1.57-1.93-1.46-3.31c0.06-0.81,0.47-1.23,1.26-1.3c0.56-0.05,1.1,0.04,1.63,0.19
			c3.75,1.06,6.48,3.47,8.71,6.55c0.24,0.34,0.22,0.68,0.19,1.05c-0.03,0.36-0.24,0.7-0.08,1.12c1.06-0.22,2.02-0.68,2.97-1.15
			c2.67-1.32,5.48-2.25,8.32-3.14c2.58-0.81,4.94-2.13,7.26-3.5c0.71-0.42,1.41-0.86,2.11-1.29c0.06,0.06,0.12,0.11,0.17,0.17
			c-1.02,1.05-2.04,2.1-3.07,3.16c0.86-0.08,1.58-0.53,2.27-1.03c1.63-1.18,2.95-2.67,4.13-4.28c1.92-2.61,3.85-5.22,5.64-7.93
			c6.05-9.16,14.87-14.1,25.26-16.68c2.74-0.68,5.52-1.08,8.54-1.14c-0.67,0.39-1.26,0.39-1.8,0.54c-0.56,0.16-1.14,0.25-1.7,0.38
			c-2.38,0.56-4.77,1.1-7.14,1.68c-4.37,1.07-8.3,3.07-11.94,5.67c-0.37,0.26-0.77,0.5-1,0.92c-0.08,0.02-0.17,0.05-0.11,0.15
			c0.02,0.03,0.14-0.01,0.21-0.03c1.37-0.68,2.78-1.29,4.11-2.04c4.72-2.71,9.82-4.35,15.09-5.6c3.1-0.74,6.21-1.39,9.37-1.78
			c0.36-0.04,0.74-0.06,1.1-0.03c0.74,0.05,1.23,0.43,1.23,1.21c0,1.53-0.04,3.06-0.09,4.59c-0.01,0.31-0.23,0.56-0.43,0.79
			c-4.99,5.63-8.2,12.16-10.07,19.43c-1.3,5.04-1.58,10.11-1.38,15.28c0.19,4.85,1.17,9.51,2.72,14.08c0.48,1.42,1.1,2.79,1.7,4.16
			c0.2,0.46,0.14,0.79-0.19,1.15c-2.64,2.89-5.86,4.56-9.82,4.72c-1.97,0.08-3.92,0.01-5.79-0.72c-0.22-0.08-0.54-0.04-0.61-0.32
			c-0.08-0.33,0.26-0.35,0.45-0.49c1.69-1.26,2.67-3,3.32-4.95c0.12-0.37,0.05-0.56-0.4-0.57c-0.9-0.03-1.7-0.1-2,1.11
			c-0.21,0.85-0.84,1.56-1.43,2.22c-3.4,3.78-7.56,6.27-12.56,7.3c-1.38,0.28-2.74,0.12-4.09-0.23c1.29,0.85,2.72,0.96,4.18,0.78
			c0.97-0.12,1.93-0.33,2.89-0.54c0.53-0.12,0.76,0,0.65,0.58c-0.11,0.6-0.19,1.21-0.29,1.81c-0.93,5.93,0.2,11.49,3.06,16.73
			c0.22,0.41,0.46,0.44,0.79,0.23c0.57-0.36,1.15-0.71,1.67-1.13c4.47-3.65,11.93-2.68,16.08,1.86c0.08,0.09,0.13,0.2,0.25,0.4
			c-2.28-0.6-4.26-2.27-6.71-1.4c0.48,0.35,1.02,0.23,1.55,0.25c3.16,0.11,6.82,3.07,7.36,5.99c0.22,1.19-0.16,2.31-0.95,2.78
			c-0.3,0.18-0.49,0.27-0.77-0.16c-1.83-2.95-4.39-4.71-7.99-4.67c-0.43,0-0.86,0.04-1.29-0.01c-0.68-0.08-0.89,0.15-0.89,0.85
			c0,0.78,0.14,0.89,0.96,0.82c2.97-0.28,5.56,0.65,7.61,2.89c0.86,0.94,1.26,2.08,1.32,3.35c0.09,2.06-1.02,3.4-3.18,3.82
			c-2.44,0.47-4.83,0.06-7.19-0.47c-1.88-0.43-3.76-0.88-5.6-1.44c-2.99-0.91-6.01-1.11-9.09-0.76c-1.51,0.17-3,0.08-4.46-0.34
			c-2.42-0.69-4.05-2.32-5.22-4.48c-1.97-3.63-3.73-7.37-5.41-11.13c-3.29-7.37-6.49-14.77-8.99-22.46
			c-0.93-2.86-1.33-5.77-1.17-8.77c0.04-0.75,0.26-1.44,0.61-2.1c0.63-1.2,1.42-2.29,2.3-3.31c4.5-5.29,9.42-10.06,15.82-13.06
			c0.96-0.45,1.18-1.24,1.12-2.37c-1.38,0.85-2.67,1.64-4.19,2.57c0.47-1.48,0.86-2.72,1.3-4.12c-0.59,0.24-0.85,0.62-1.11,1
			c-0.65,0.94-1.11,1.98-1.46,3.05c-0.31,0.96-0.89,1.62-1.69,2.2c-4.26,3.09-8.05,6.71-11.61,10.56c-3.06,3.3-4.32,7.16-3.23,11.59
			c0.4,1.63-0.07,2.68-1.29,3.72c-4.38,3.76-9.03,7.03-14.71,8.57c-1.07,0.29-2.15,0.46-3.24,0.64c-0.18,0.03-0.52-0.08-0.5,0.23
			c0.02,0.38,0.38,0.22,0.58,0.21c2.94-0.15,5.72-1,8.47-1.96c1.71-0.6,3.31-1.42,4.83-2.41c1.9-1.24,3.81-2.46,5.74-3.65
			c0.28-0.17,0.56-0.69,1-0.3c0.4,0.35,0.45,1.51,0.1,1.88c-0.21,0.22-0.46,0.4-0.71,0.59c-4.85,3.58-10.08,6.27-16.2,6.84
			c-2.29,0.21-4.59,0.32-6.87-0.07c-1.19-0.21-2.45-0.12-3.43-1.07c-0.31-0.31-0.65-0.28-0.8,0.34c-0.4,1.59-0.44,1.58,1.19,1.87
			c0.72,0.13,1.45,0.27,2.18,0.35c0.6,0.07,0.87,0.39,0.9,0.94c0.1,1.93-0.36,3.7-1.55,5.25c-0.86,1.13-2.06,1.11-3.26,0.78
			c-0.9-0.24-1.81-0.36-2.73-0.26c-0.78,0.08-1.47,0.36-1.81,1.15c-0.02,0.01-0.05,0.01-0.07,0.02c-0.01,0.01,0,0.04,0,0.05
			c0.02-0.03,0.03-0.06,0.05-0.09c0.87,0.12,1.69-0.21,2.53-0.27c1.92-0.13,3.67,0.37,5.3,1.52c-1.03,0.14-2.06,0.26-3.09,0.41
			c-0.25,0.04-0.7-0.14-0.56,0.44c0.09,0.36,0.11,0.72,0.66,0.66c0.97-0.11,1.95-0.2,2.93-0.21c1.42-0.02,2.68,0.57,4.02,0.87
			c0.14,0.03,0.32,0.06,0.31,0.27c-0.01,0.18-0.17,0.25-0.31,0.3c-0.42,0.14-0.85,0.26-1.25,0.49c1.03,0.14,2-0.21,3-0.29
			c4.36-0.36,8.3,0.74,11.81,3.35c1,0.74,1.51,1.73,1.37,3.02c-0.11,1.01-1.78,2.3-2.76,2.1c-0.22-0.04-0.2-0.18-0.21-0.33
			c-0.24-2.54-1.93-3.74-4.13-4.48c-1.05-0.35-2.13-0.55-3.24-0.57c-0.41-0.13-0.81-0.14-1.22,0.14
			C25.24,115.33,25.64,115.36,26.05,115.39z M71.51,59.2c0-0.78,0.01-1.56,0-2.34c-0.05-4.08,3.21-10.19,9.08-11.65
			c2.77-0.69,5.59-0.62,8.42-0.47c1.95,0.1,3.91,0.22,5.85,0.34c0.02-0.2-0.08-0.21-0.16-0.24c-4.5-1.49-9.08-2.22-13.84-1.68
			c-4.82,0.55-8.21,3.21-9.62,7.82C70.39,53.73,70.43,56.48,71.51,59.2z"/>
		<path fill="#FDE300" d="M146.33,62.2c-5.46-2.59-10.62-5.61-14.91-10.32c1.27-0.08,2.27-0.22,3.11,0.53
			c0.41,0.37,0.73,0.17,1.03-0.13c0.35-0.34,0.45-0.73,0.14-1.15c-0.31-0.42-0.75-0.63-1.23-0.76c-2.57-0.67-6.49,1.64-7.18,4.22
			c-0.04,0.14-0.03,0.29-0.06,0.6c0.7-0.8,1.3-1.49,2.03-2.33c-0.1,1.17-0.43,2.1-0.78,3c-2.02,5.21-2.2,10.6-1.86,16.09
			c0.38,5.98,1.87,11.76,3.08,17.59c0.33,1.58,0.38,3.21,0.66,4.82c0-1.39,0-2.79,0-4.38c3.2,3.21,5.99,6.61,9.99,8.65
			c-0.28,0.59-0.88,0.86-1.42,1.18c-2.26,1.35-4.81,1.56-7.34,1.78c-3.4,0.29-6.69-0.45-10-1.13c-5.48-1.12-9.09-4.72-12.18-8.98
			c-4.41-6.08-6.94-12.97-8.08-20.35c-0.74-4.77-0.65-9.59-0.17-14.38c0.36-3.55,1.8-6.84,2.96-10.19c1.06-3.07,2.42-6.01,4.2-8.74
			c0.35-0.53,1.14-0.94,1.07-1.52c-0.07-0.55-0.72-1.02-1.1-1.54c-0.25-0.35-0.5-0.7-0.69-1.08c-0.77-1.49-0.69-1.99,0.46-3.22
			c0.6-0.64,1.2-1.28,1.91-1.9c-0.18,2.6,1.72,4.92,0.82,7.77c2.04-1.6,3.98-3.11,5.92-4.63c0.1-0.08,0.27-0.11,0.25-0.3
			c0.05-0.02,0.11-0.04,0.16-0.06c-0.03-0.03-0.06-0.06-0.09-0.09c-0.02,0.05-0.05,0.09-0.07,0.14c-0.17-0.06-0.31-0.01-0.42,0.13
			c-0.18,0.02-0.36,0.13-0.54,0l-0.01,0.02c0.59-0.59,1.34-0.96,2.03-1.41c0.72-0.46,1.28-1.02,1.35-2.09
			c-1.15,0.78-2.2,1.49-3.38,2.29c-0.42-2.04-1.07-3.93-0.8-5.95c0.09-0.69,0-1.32-0.24-1.97c-0.89-2.37-1.74-4.75-2.69-7.33
			c-0.24,1.74-0.58,3.25-1.11,4.72c-0.53,1.46-1.06,2.93-1.65,4.37c-0.6,1.47-1.27,2.91-1.91,4.36c-0.11,0-0.23,0.01-0.34,0.01
			c0.53-1.85,1.02-3.71,1.44-5.59c0.39-1.76-0.14-3.47-0.29-5.19c-0.24-2.81-0.55-5.61-0.1-8.42c0.02-0.15,0.05-0.3,0.09-0.45
			c0.47-1.68,1.37-2,2.75-0.93c1.18,0.91,2.04,2.11,2.87,3.33c2.58,3.78,4.75,7.79,6.47,12.02c0.81,1.99,3.34,2.93,5.08,2.31
			c1.11-0.39,2.12-0.94,3.14-1.51c1.87-1.05,3.74-2.1,5.91-2.43c3.09-0.47,6.04,0.15,8.92,1.2c1.29,0.47,2.57,0.99,3.84,1.51
			c0.25,0.1,0.74,0.03,0.66,0.46c-0.06,0.33-0.47,0.12-0.71,0.17c-0.1,0.02-0.21,0.02-0.5,0.03c1.45,0.97,2.63,2.03,4.42,1.77
			c1.67-0.24,3.03,0.43,4.19,1.63c1.25,1.29,2.68,2.34,4.57,2.52c0.7,0.07,1.27-0.08,1.72-0.8c-0.74-0.2-1.46-0.19-2.17-0.23
			c-0.18-0.01-0.4,0-0.43-0.24c-0.03-0.27,0.2-0.26,0.38-0.26c1.96-0.01,3.93-0.1,5.8,0.66c1.43,0.59,1.74,1.13,1.42,2.62
			c-0.67,3.13-1.79,6.09-3.34,8.89c-0.32,0.57-0.63,1.18-1.4,1.56c0.48-2.64,0.92-5.17,1.42-7.68c0.1-0.48,0.55-0.8,0.98-1.06
			c0.1-0.06,0.23-0.06,0.35-0.09c0.24-0.06,0.59,0.15,0.68-0.26c0.11-0.45,0.15-0.92,0.03-1.37c-0.09-0.33-0.35-0.1-0.52-0.02
			c-0.53,0.27-0.91,0.72-1.27,1.18c-1.02,1.31-1.85,2.74-2.56,4.23c-1.49,3.13-3.24,6.09-5.31,8.88c-1.24,1.67-1.15,1.73,0.85,2.08
			c0.72,0.13,1.44,0.28,2.16,0.42c-0.01,0.09-0.02,0.19-0.03,0.19c-1.87,0.11-3.07,1.26-4.06,2.67c-0.32,0.46-0.7,0.56-1.23,0.58
			c-1.87,0.07-3.6,0.62-5.18,1.66c-2.37,1.58-2.84,4.22-2.02,6.85c0.06,0.2,0.13,0.4,0.2,0.61C146.42,62.1,146.38,62.15,146.33,62.2
			z M106.85,54.96c-0.07,0.06-0.13,0.11-0.19,0.17c-0.94,0.69-1.76,1.51-2.49,2.42c-2.96,3.69-3.27,7.86-0.89,11.93
			c0.74,1.27,1.51,2.52,2.25,3.78c1.49,2.52,2.57,5.18,3.04,8.1c0.48,2.94,1.11,5.86,1.68,8.8c-0.27-3.82-0.21-7.65-0.75-11.44
			c-0.37-2.64-1.19-5.09-2.72-7.31c-1.15-1.67-1.87-3.56-2.48-5.5c-0.5-1.58-0.54-3.17-0.24-4.8c0.41-2.19,1.54-4.03,2.7-5.87
			c0.08-0.08,0.16-0.17,0.07-0.29c0.04,0,0.08,0,0.13,0c-0.01-0.03-0.02-0.07-0.03-0.1C106.9,54.88,106.87,54.92,106.85,54.96z
			 M125.43,94.66c-0.05-0.02,0.03-0.21-0.12-0.09c0.04,0.03,0.09,0.05,0.14,0.08c0.03,0.04,0.06,0.09,0.09,0.13
			C125.5,94.74,125.46,94.7,125.43,94.66z M132.24,41.35c-0.37-0.11-0.65,0.14-0.93,0.3c-1.72,1-3.49,0.99-5.3,0.29
			c-0.51-0.2-1.04-0.37-1.55-0.56c-2.98-1.06-5.18-0.42-7.27,2.15c0.71-0.1,1.27-0.42,1.78-0.76c2.08-1.38,4.23-1.43,6.47-0.49
			c0.74,0.31,1.5,0.56,2.29,0.64C129.47,43.1,131.11,42.93,132.24,41.35c0.04-0.03,0.08-0.05,0.13-0.08
			c-0.04-0.02-0.07-0.04-0.1-0.05C132.26,41.26,132.25,41.31,132.24,41.35z M133.92,46.01c0.35,0.5,0.64,1.04,1.11,1.45
			c3.33,2.88,8.66,4.58,13.69,2.05c0.27-0.14,0.38-0.23,0.29-0.53c-0.86-2.87-2.05-5.48-4.88-7.01c-1.95-1.06-4.01-1.21-6.14-1.16
			c-2.02,0.05-3.84,0.71-5.46,1.89c-0.49,0.35-0.93,0.77-1.18,1.45c0.94-0.11,1.67-0.69,2.58-0.74c-0.11,0.93-0.12,1.78,0,2.63
			c-0.03,0-0.05,0.01-0.08,0.01C133.87,46.03,133.89,46.02,133.92,46.01z M126.15,32.99c1.33,1.51,2.51,2.83,3.66,4.18
			c0.33,0.38,0.68,0.52,1.18,0.55c3.06,0.15,6.12,0.36,9.18,0.51c3.88,0.19,6.49,2.11,7.86,5.72c0.39,1.03,0.77,2.06,1.17,3.08
			c0.28,0.71,0.59,1.42,1.1,2c0.78,0.88,2.11,1.04,3.07,0.37c0.83-0.58,1.08-1.89,0.55-2.93c-0.24,0.05-0.24,0.26-0.26,0.43
			c-0.13,0.95-0.66,1.47-1.6,1.61c-0.94,0.13-1.4-0.45-1.79-1.15c-0.56-1.02-0.9-2.14-1.29-3.23c-0.67-1.9-1.33-3.81-2.44-5.52
			c-1.19-1.84-2.79-3.01-5.02-3.34c-3.09-0.46-6.15-1.07-9.24-1.55C130.33,33.39,128.38,33.06,126.15,32.99z M135.46,30.06
			c1.91,0.22,3.83,0.41,5.74,0.66c3.13,0.41,5.6,2.01,7.33,4.56c1.8,2.66,3.37,5.48,3,9.09c0.4-0.81,0.4-1.49,0.49-2.14
			c0.55-4.34-2.06-9.42-5.92-11.13C142.71,29.59,139.09,29.66,135.46,30.06z M133.7,46.01c-3.11-1.87-6.1-2.97-9.54-2.36
			c-1.25,0.22-2.49,0.39-3.55,1.11c-1.39,0.94-2.97,2.64-2.64,4.63c1.27-2.89,3.53-4.32,6.49-4.85c1.68-0.3,3.28-0.06,4.89,0.4
			C130.7,45.33,132.03,45.79,133.7,46.01z M153.86,42.01c0.88-1.69,1.66-3.41,2.13-5.25c1.11-4.35-0.37-6.72-4.77-7.65
			c-0.06-0.01-0.12-0.04-0.18-0.04c-1.23-0.12-2.43-0.09-3.58,0.42c2.67,0.07,3.98,0.39,5.43,1.35c2.14,1.43,3.06,3.8,2.45,6.29
			C154.92,38.79,154.32,40.39,153.86,42.01z M116.5,81.9c0.53,3.13,1.61,5.92,4.43,7.71c1.39,0.88,2.5,2.06,3.35,3.48
			c0.25,0.41,0.54,0.81,0.81,1.21c-0.78-1.83-1.54-3.65-3.29-4.81c-1.47-0.98-2.64-2.27-3.53-3.81
			C117.58,84.46,116.94,83.21,116.5,81.9z M153.74,42.41c-0.02-0.03-0.03-0.05-0.05-0.08c-0.02,0.05-0.05,0.1-0.06,0.15
			c0,0.02,0.03,0.05,0.04,0.07C153.7,42.51,153.72,42.46,153.74,42.41z M153.47,42.9l0.03,0.03l0.01-0.05L153.47,42.9z"/>
		<path fill="#FDE300" d="M184.28,105.79c1.03,0.17,1.92,0.35,2.82,0.46c0.85,0.1,1.36,0.57,1.73,1.31c0.8,1.59,0.9,3.29,0.77,5.01
			c-0.1,1.44-0.46,2.83-1,4.18c-0.91,2.26-2.65,3.26-4.98,3.41c-0.34,0.02-0.68-0.02-1.01,0.01c-0.68,0.07-1.15-0.03-1.02-0.89
			c0.05-0.33-0.11-0.6-0.43-0.74c-0.42-0.19-0.56,0.18-0.71,0.4c-0.43,0.62-0.93,0.82-1.65,0.53c-0.75-0.3-1.27-0.78-1.29-1.61
			c-0.03-1.87-0.03-3.74,0.76-5.5c0.11-0.25,0.2-0.51,0.26-0.78c0.06-0.26-0.01-0.48-0.27-0.61c-0.26-0.13-0.48-0.05-0.67,0.13
			c-0.31,0.31-0.49,0.7-0.64,1.1c-0.75,1.99-1.33,4.01-1.28,6.15c0.01,0.57-0.15,0.75-0.72,0.72c-1.04-0.06-2.09,0.05-3.12-0.14
			c-0.56-0.11-1.01-0.3-0.98-0.98c0.01-0.29-0.07-0.55-0.4-0.64c-0.35-0.1-0.64,0.06-0.79,0.33c-0.4,0.69-0.77,0.36-1.15,0.01
			c-0.47-0.44-0.72-0.99-0.76-1.62c-0.14-2.21-0.26-4.41,0.72-6.49c0.11-0.23,0.28-0.49,0.16-0.87c-0.49,0.33-0.73,0.8-0.96,1.27
			c-0.73,1.44-1.14,2.96-1.16,4.58c0,0.27,0.06,0.57-0.39,0.56c-0.31-0.01-0.48-0.05-0.53-0.43c-0.19-1.44-0.29-1.48-1.7-0.67
			c-0.03-0.64-0.14-1.24-0.07-1.82c0.31-2.53,1.34-4.75,3.07-6.63c0.63-0.69,1.41-0.97,2.37-1.02c2.4-0.13,4.69,0.27,6.93,1.09
			c0.73,0.26,1.41-0.33,1.31-1.09c-0.04-0.32-0.29-0.26-0.48-0.3c-0.98-0.21-1.95-0.4-3.05-0.63c0.5-0.51,1.08-0.62,1.6-0.79
			c1.43-0.45,2.91-0.72,4.4-0.91c0.17-0.02,0.5,0.09,0.45-0.27c-0.03-0.25-0.29-0.16-0.45-0.17c-2.49-0.02-4.96,0-7.33,0.93
			c-1.64,0.64-1.62,0.57-2.2-1.04c-0.61-1.7-0.46-3.44-0.46-5.18c0-0.58,0.46-0.92,0.88-1.22c0.86-0.62,1.76-1.2,2.6-1.88
			c-1.23,0.25-2.28,0.9-3.39,1.42c-0.47,0.22-0.86,0.75-1.5,0.42c-0.81-0.42-1.46-1.02-1.93-1.79c-0.22-0.37-0.01-0.85,0.11-1.25
			c0.71-2.27,0.56-4.52-0.05-6.78c-0.69-2.57-1.58-5.07-2.82-7.44c-1.38-2.63-2.55-5.35-2.99-8.33c-0.21-1.38-0.09-2.76,0.13-4.11
			c0.29-1.78,2.4-2.61,3.89-1.59c0.2,0.14,0.14,0.31,0.15,0.48c0.04,0.49,0.07,0.98,0.15,1.46c0.13,0.81,0.42,1.62,0.43,2.43
			s-0.26,1.62-0.41,2.47c0.38,0.08,0.7-0.11,1-0.26c2.42-1.21,4.7-2.57,5.42-5.46c0.09-0.35,0.33-0.28,0.57-0.27
			c2.74,0.14,6.4,3.51,6.77,6.23c0.1,0.77,0.04,1.52-0.27,2.25c-0.61,1.43-1.2,2.86-1.64,4.39c0.6-0.91,1.25-1.8,1.8-2.74
			c0.43-0.73,0.77-0.71,1.37-0.15c5.04,4.79,8.71,10.42,10.19,17.28c0.99,4.63-0.04,8.98-2.21,13.11c-0.29,0.56-0.76,0.65-1.29,0.67
			c-0.73,0.03-1.47,0.07-2.2,0.11C184.63,105.61,184.52,105.69,184.28,105.79z"/>
		<path fill="#FDE300" d="M126.16,103.83c-8.47,0.95-16.74,0.54-24.97-1.17c-8.54-1.78-16.76-4.51-24.84-7.72
			c-0.23-0.09-0.47-0.14-0.68-0.26c-0.35-0.19-0.96-0.03-1.02-0.58c-0.07-0.68,0.02-1.49,0.66-1.81c1.72-0.87,3.37-1.86,4.99-2.89
			c0.46-0.29,0.96,0.02,1.4,0.2c2.34,0.92,4.75,1.35,7.27,1.23c3.24-0.15,6.11-1.16,8.53-3.34c1.56-1.4,1.63-1.47,2.81,0.28
			c4.25,6.28,10.06,10.53,17.06,13.24c2.57,1,5.27,1.57,7.89,2.42C125.55,103.52,125.86,103.54,126.16,103.83z"/>
		<path fill="#CFCFCE" d="M150.03,81.51c-0.32-0.64-0.82-1.15-1.36-1.6c-4.03-3.43-8.5-6.08-13.61-7.56
			c-0.06-0.02-0.12-0.06-0.18-0.05c-1.49,0.15-1.79-0.9-2.05-2.09c1.31-0.1,2.55,0.24,3.75,0.61c4.51,1.38,8.87,3.24,12.51,6.22
			c8.26,6.77,10.74,14.82,8.89,23.27c-0.95,4.31-4.79,5.74-8.46,3.25c-3.2-2.17-4.74-5.35-5.31-9.07c-0.17-1.12-0.25-2.25-0.42-3.37
			c-0.06-0.37-0.06-0.57,0.37-0.57c0.15,0,0.3-0.07,0.45-0.1c2.15-0.47,3.1-1.82,2.82-4c-0.25-1.99-0.95-3.85-1.67-5.82
			c-0.56,1.05-1.24,1.88-2.21,2.47c-1.26,0.77-2.44,0.78-3.67-0.1c-2.2-1.57-5.11-6.17-5.56-8.9c1.28-0.02,2.5,0.27,3.69,0.64
			c4.23,1.32,8.12,3.24,11.26,6.46c0.17,0.17,0.38,0.29,0.58,0.44c0.04,0.09,0.1,0.17,0.19,0.1
			C150.09,81.71,150.04,81.59,150.03,81.51z"/>
		<path fill="#FDE300" d="M108.81,106.53c0.21,0.63,0.69,0.84,1.05,1.14c1.31,1.12,1.8,3.02,1.08,4.28
			c-0.69,1.22-2.93,1.92-4.43,1.44c-0.71-0.23-1.07-0.52-1.08-1.36c-0.01-1.17-0.78-2.04-1.61-2.78c-1.79-1.6-3.86-2.56-6.29-2.68
			c-0.97-0.05-1.93-0.09-2.92,0.07c0.78,0.11,1.57,0.17,2.35,0.33c2.19,0.43,4.23,1.23,5.94,2.72c0.98,0.86,1.64,1.9,1.67,3.25
			c0.01,0.8-0.17,1.46-1.09,1.66c-0.47,0.1-0.7,0.45-0.88,0.86c-0.34,0.79-0.97,1.15-1.82,1.15c-0.61,0-1.23-0.02-1.84,0.01
			c-1.23,0.05-2.2-0.45-2.97-1.37c-0.35-0.42-0.72-0.85-0.98-1.33c-1.81-3.38-5-4.72-8.43-5.64c-1.62-0.43-3.28-0.36-4.91,0.1
			c-0.53,0.15-1.06,0.29-1.6,0.43c-1.67,0.44-1.82,0.3-1.51-1.42c0.02-0.12,0.04-0.25,0.11-0.35c0.89-1.3,0.39-2.1-0.73-3.07
			c-1.51-1.3-2.47-3.1-3.28-4.93c-0.42-0.95-0.5-1.93-0.51-2.95c-0.01-0.75,0.2-0.79,0.83-0.54c3.66,1.48,7.33,2.92,11,4.37
			c0.99,0.39,1.99,0.79,3.18,1.26c-1.51,0.45-2.84,0.81-4.15,1.25c-0.28,0.09-1.06-0.01-0.71,0.6c0.22,0.39,0.67,1.02,1.4,0.66
			c1.04-0.51,2.09-1.01,3.13-1.53c1.06-0.53,2.13-0.63,3.28-0.25c5.15,1.7,10.47,2.75,15.8,3.68c1.99,0.35,4,0.6,6.03,0.64
			c1.29,0.02,1.58,0.4,0.99,1.6c-0.32,0.65-0.9,1.18-1.72,1.36c-0.75,0.16-1.21,0.01-1.64-0.69
			C110.94,107.54,110.04,106.86,108.81,106.53z"/>
		<path fill="#FDE300" d="M129.87,56.35c0.11,1.96,0.18,3.94,0.33,5.92c0.35,4.64,1.38,9.12,3.33,13.37
			c1.86,4.06,3.73,8.11,6.04,11.94c0.87,1.43,1.66,2.95,3.16,3.86c0.27,0.16,0.21,0.42,0.21,0.65c0.01,1.07,0.03,2.14,0.01,3.22
			c-0.04,1.43-1.6,2.33-2.83,1.61c-0.71-0.42-1.37-0.92-2.01-1.45c-2.13-1.77-4-3.79-5.94-5.75c-1.69-1.71-2.37-3.79-2.79-6.05
			c-0.99-5.27-1.9-10.55-1.74-15.94c0.1-3.34,0.51-6.65,1.44-9.87c0.13-0.44,0.32-0.86,0.49-1.28
			C129.63,56.47,129.68,56.33,129.87,56.35z"/>
		<path fill="#FDE300" d="M154.45,64.14c-1.78,0.08-3.3-0.16-4.72-0.92c-3.26-1.76-3.58-5.6-0.64-7.85
			c1.75-1.34,3.78-1.81,5.95-1.78c0.42,0.01,0.58,0.26,0.76,0.55c0.49,0.81,1,1.61,1.49,2.42c0.38,0.63,0.95,0.91,1.66,0.99
			c1.27,0.14,2.5-0.14,3.74-0.3c1.87-0.24,2.17,0.03,1.94,1.89c-0.15,1.25-0.9,2.12-1.89,2.8c-2.22,1.53-4.76,2-7.38,2.2
			C155,64.16,154.63,64.14,154.45,64.14z"/>
		<path fill="#FDE300" d="M145.55,10.35c-0.77,3.7-1.04,7.48-1.57,11.22c-1.77-0.5-2.56-1.98-2.09-3.95
			c0.38-1.59,1.1-3.05,1.77-4.52c0.46-1.01,0.32-1.8-0.49-2.56c-0.96,2.14-2.17,4.16-2.91,6.4c-0.27,0.82-0.45,1.65-0.45,2.51
			c0,0.31,0.18,0.86-0.49,0.67c-0.45-0.13-1.24,0.16-1.15-0.79c0.04-0.37,0.06-0.74,0.17-1.09c1.17-3.8,2.39-7.58,4.23-11.12
			c0.49-0.95,1.05-1.87,1.79-2.66c1.47-1.57,2.75-1.39,3.7,0.56c0.83,1.71,1.1,3.56,1.28,5.42c0.43,4.34,0.06,8.61-1.04,12.83
			c-0.1,0.38-0.21,0.45-0.53,0.37c-0.24-0.06-0.48-0.09-0.72-0.13c-0.82-0.13-1.19-0.54-1.17-1.43c0.09-3.43,0.22-6.86,0.04-10.28
			c-0.02-0.48-0.05-0.95-0.08-1.43C145.74,10.36,145.65,10.36,145.55,10.35z"/>
		<path fill="#FDE300" d="M162.24,77.43c1.37,2.15,2.26,4.33,2.9,6.63c0.45,1.62,0.74,3.28,0.91,4.96c0.17,1.64-0.38,3.07-1.21,4.43
			c-0.99,1.61-2.18,3.04-3.92,3.89c-0.35,0.17-0.8,0.44-1.13,0.21c-0.3-0.21-0.07-0.68-0.03-1.04c0.24-2.18,0.8-4.35,0.11-6.55
			c-0.17-0.54,0.25-0.88,0.64-1.11c0.8-0.47,1.15-1.18,1.4-2.05c0.83-2.97,1.19-5.93,0.33-8.96
			C162.21,77.78,162.24,77.68,162.24,77.43z"/>
		<path fill="#FDFDFD" d="M131.18,131.16c-0.17-0.14-0.31-0.25-0.44-0.38c-3.51-3.38-7.01-6.76-10.52-10.13
			c-0.35-0.34-0.27-0.49,0.03-0.78c3.49-3.35,6.98-6.7,10.45-10.07c0.36-0.35,0.56-0.39,0.94-0.01c3.45,3.35,6.9,6.69,10.38,10.01
			c0.44,0.42,0.36,0.61-0.03,0.98c-3.45,3.3-6.88,6.63-10.32,9.94C131.52,130.87,131.36,131.01,131.18,131.16z M124.1,117.59
			c-0.19,0.09-0.34,0.23-0.42,0.42v0.01c-0.65,0.59-1.28,1.2-1.96,1.76c-0.43,0.36-0.44,0.61-0.01,1c0.96,0.88,1.87,1.81,2.81,2.72
			c-0.01,0.27,0.21,0.17,0.34,0.22c1.97,1.92,3.95,3.84,5.92,5.78c0.27,0.27,0.46,0.3,0.75,0.01c3.17-3.07,6.35-6.13,9.57-9.23
			c-3.21-3.1-6.4-6.15-9.56-9.22c-0.29-0.28-0.47-0.27-0.75,0.01c-2.01,1.98-4.03,3.94-6.05,5.91c-0.06,0.03-0.1,0.07-0.13,0.13
			C124.44,117.26,124.27,117.43,124.1,117.59z"/>
		<path fill="#FDE300" d="M166.3,57.15c-0.02-1.26,0.1-2.16-0.28-3c-0.18-0.41-0.06-0.58,0.38-0.51c2.72,0.44,5.14,1.48,6.71,3.86
			c1.07,1.62,0.46,3.57-1.33,4.62c-1.85,1.08-3.84,1.16-5.87,0.69c-1.64-0.39-1.67-0.46-0.65-1.86
			C166.19,59.68,166.4,58.27,166.3,57.15z"/>
		<path fill="#FDE300" d="M159.45,65.13c0,0.89,0.06,1.7-0.01,2.51c-0.28,2.92,0.61,5.56,2,8.05c0.41,0.74,0.31,1.24-0.18,1.84
			c-0.77,0.96-1.64,1.81-2.52,2.67C157.15,76.03,157.54,66.78,159.45,65.13z"/>
		<path fill="#FDFDFD" d="M147.35,70.98c0.02-1.14-0.43-1.91-0.82-2.7c-0.43-0.84-0.88-1.67-1.3-2.51
			c-0.33-0.67-0.17-1.21,0.56-1.46c1.83-0.62,3.67-0.62,5.45,0.13c0.89,0.38,1.01,0.97,0.45,1.86
			C150.57,68.07,148.98,69.41,147.35,70.98z"/>
		<path fill="#FDFDFD" d="M161.64,78.55c0.05,2.53,0.02,4.85-0.34,7.15c-0.28,1.82-1.14,2.14-2.61,1c-0.88-0.69-1.56-1.54-1.98-2.59
			c-0.29-0.72-0.17-1.26,0.53-1.72C158.81,81.33,160.34,80.21,161.64,78.55z"/>
		<path fill="#FDFDFD" d="M145.63,82.13c0.28,1.81,0.55,3.49,0.42,5.2c-0.12,1.48-0.85,2.01-2.27,1.63
			c-1.03-0.27-1.9-0.81-2.56-1.66c-0.45-0.58-0.42-1.07,0.25-1.52C142.95,84.77,144.45,83.76,145.63,82.13z"/>
		<path fill="#FDFDFD" d="M166.13,69.59c0.38-1.41-0.07-2.73-0.32-4.06c-0.25-1.3,0.05-1.75,1.37-1.89c0.9-0.09,1.77,0.07,2.58,0.48
			c1.07,0.54,1.22,1.25,0.5,2.23C169.64,67.19,167.75,68.68,166.13,69.59z"/>
		<path fill="#FDE300" d="M159.77,49.39c1.43-1.37,2.55-2.81,2.39-5.02c0.85,0.66,1.13,1.39,1.17,2.22c0.03,0.73,0.03,1.47,0,2.2
			c-0.02,0.44,0.11,0.59,0.58,0.69c1.49,0.32,2.68,1.16,3.59,2.38c0.37,0.5,0.54,0.96-0.4,0.91c-0.09,0-0.19,0-0.27,0.03
			c-1.06,0.33-1.73,0.01-2.27-1.02C163.59,49.93,162.05,48.99,159.77,49.39z"/>
		<path fill="#FDE300" d="M113.59,26.04c0.06,1.85-1.44,2.78-1.95,4.17c0.07,0.05,0.15,0.09,0.22,0.14
			c0.77-0.92,1.54-1.83,2.41-2.88c0.36,1.19,0.54,2.25,0.62,3.32c0.03,0.46-0.23,0.86-0.59,1.19c-0.51,0.47-1.06,0.9-1.44,1.52
			c-0.27,0.43-0.68,0.42-0.87-0.12c-0.39-1.12-0.74-2.26-1.1-3.39c-0.08-0.24-0.08-0.47,0.09-0.69
			C111.83,28.26,112.66,27.21,113.59,26.04z"/>
		<path fill="#FDFDFD" d="M100.07,75.76c-0.01,0.79-0.69,1.43-1.49,1.39c-0.76-0.03-1.4-0.67-1.41-1.41
			c-0.01-0.77,0.68-1.44,1.47-1.44C99.44,74.31,100.08,74.96,100.07,75.76z"/>
		<path fill="#FDFDFD" d="M100.22,51.1c0,0.78-0.68,1.43-1.48,1.42c-0.78-0.01-1.47-0.72-1.44-1.47c0.03-0.73,0.7-1.36,1.45-1.37
			C99.55,49.67,100.22,50.32,100.22,51.1z"/>
		<path fill="#FDFDFD" d="M104.33,39.82c0.02,0.78-0.57,1.39-1.37,1.43c-0.83,0.04-1.51-0.57-1.52-1.38
			c-0.01-0.79,0.66-1.46,1.46-1.45C103.68,38.44,104.31,39.06,104.33,39.82z"/>
		<path fill="#FDFDFD" d="M98.56,64.04c0.01,0.79-0.64,1.41-1.47,1.41c-0.79,0-1.42-0.58-1.46-1.33c-0.04-0.78,0.61-1.44,1.42-1.46
			C97.87,62.64,98.54,63.26,98.56,64.04z"/>
		<path fill="#FDFDFD" d="M103.26,87.76c-0.64-0.04-1.08-0.37-1.16-1.04c-0.07-0.61,0.51-1.18,1.15-1.15
			c0.68,0.03,1.12,0.41,1.13,1.08C104.39,87.31,103.95,87.69,103.26,87.76z"/>
		<path fill="#FDFDFD" d="M160.92,46.86c-0.05,0.3-0.2,0.54-0.48,0.81c-0.01-0.35,0.09-0.59,0.27-0.81c0.38-1.3,0.33-2.54-0.52-3.66
			c-0.32-0.43,0.07-0.57,0.31-0.89C161.53,43.78,161.7,45.27,160.92,46.86z"/>
		<path fill="#FDFDFD" d="M158.83,48.81c-0.95,0.06-1.86-0.03-2.75-0.25c-0.18-0.05-0.61,0.06-0.4-0.37
			c0.11-0.23,0.23-0.65,0.65-0.4C157.11,48.25,158.01,48.43,158.83,48.81z"/>
		<path fill="#FDFDFD" d="M158.79,44.09c0.14,0.31,0.44,0.5,0.23,0.75c-0.12,0.14-0.49,0.13-0.56-0.03
			C158.31,44.53,158.66,44.39,158.79,44.09z"/>
		<path fill="#3B3434" d="M26.05,115.39c-0.4-0.03-0.8-0.06-1.21-0.09c0.41-0.28,0.81-0.27,1.22-0.14
			C26.05,115.24,26.05,115.31,26.05,115.39z"/>
		<path fill="#3B3434" d="M107.25,28.55c0.11,0,0.23-0.01,0.34-0.01c-0.05,0.19-0.04,0.45-0.32,0.39
			C107.14,28.9,107.18,28.69,107.25,28.55z"/>
		<path fill="#FDE300" d="M55.5,51.83c-0.08,0.1-0.16,0.2-0.24,0.3c-0.06-0.06-0.12-0.11-0.17-0.17
			C55.19,51.84,55.3,51.7,55.5,51.83L55.5,51.83z"/>
		<path fill="#FDE300" d="M55.49,51.82c0.01-0.05,0.01-0.09,0.02-0.14c0.04,0.02,0.08,0.04,0.12,0.05
			C55.59,51.77,55.54,51.8,55.49,51.82L55.49,51.82z"/>
		<path fill="#CFCFCE" d="M160.36,47.86c-0.01,0.02-0.02,0.04-0.03,0.06c-0.03-0.02-0.05-0.04-0.08-0.06
			c0.02-0.02,0.04-0.04,0.05-0.06C160.32,47.82,160.34,47.84,160.36,47.86z"/>
		<polygon fill="#FDE300" points="116,31.55 116.01,31.59 116,31.57 		"/>
		<path fill="#FDE300" d="M146.47,62.06c0.02,0.06,0.04,0.13,0.06,0.19c-0.07-0.02-0.13-0.04-0.2-0.05
			C146.38,62.15,146.42,62.1,146.47,62.06z"/>
		<path fill="#3B3434" d="M71.51,59.2c-1.08-2.72-1.13-5.47-0.28-8.23c1.41-4.61,4.8-7.27,9.62-7.82c4.76-0.54,9.34,0.2,13.84,1.68
			c0.08,0.03,0.18,0.04,0.16,0.24c-1.94-0.11-3.89-0.24-5.85-0.34c-2.82-0.15-5.64-0.21-8.42,0.47c-5.87,1.45-9.13,7.56-9.08,11.64
			C71.52,57.64,71.51,58.42,71.51,59.2z"/>
		<path fill="#191815" d="M9.66,107.87c-0.02,0.03-0.03,0.06-0.05,0.09c0-0.02-0.01-0.05,0-0.05c0.02-0.01,0.05-0.02,0.07-0.02
			C9.68,107.89,9.66,107.87,9.66,107.87z"/>
		<path fill="#191815" d="M74.55,33.55c-0.07,0.01-0.2,0.05-0.21,0.03c-0.07-0.1,0.03-0.13,0.11-0.15
			C74.48,33.47,74.51,33.51,74.55,33.55z"/>
		<path fill="#191815" d="M126.15,32.99c2.22,0.07,4.18,0.4,6.13,0.71c3.08,0.48,6.15,1.09,9.24,1.55c2.23,0.33,3.83,1.51,5.02,3.34
			c1.11,1.71,1.77,3.62,2.44,5.52c0.39,1.09,0.72,2.21,1.29,3.23c0.39,0.7,0.85,1.29,1.79,1.15c0.95-0.14,1.48-0.66,1.6-1.61
			c0.02-0.17,0.02-0.38,0.26-0.43c0.53,1.04,0.28,2.35-0.55,2.93c-0.96,0.67-2.3,0.51-3.07-0.37c-0.51-0.58-0.82-1.29-1.1-2
			c-0.4-1.02-0.78-2.06-1.17-3.08c-1.38-3.61-3.98-5.53-7.86-5.72c-3.06-0.15-6.12-0.36-9.18-0.51c-0.49-0.03-0.85-0.16-1.18-0.55
			C128.66,35.82,127.48,34.5,126.15,32.99z"/>
		<path fill="#191815" d="M133.92,46.03c-0.12-0.85-0.11-1.7,0-2.63c-0.91,0.05-1.65,0.63-2.58,0.74c0.25-0.68,0.69-1.09,1.18-1.45
			c1.63-1.18,3.44-1.84,5.46-1.89c2.13-0.05,4.19,0.1,6.14,1.16c2.83,1.54,4.02,4.14,4.88,7.01c0.09,0.3-0.02,0.4-0.29,0.53
			c-5.03,2.54-10.35,0.83-13.69-2.05c-0.47-0.41-0.77-0.95-1.11-1.45C133.92,46.01,133.92,46.03,133.92,46.03z M145.95,49.47
			c-2.15-0.22-4.15-0.61-5.52-2.3c-1.52-1.86-0.97-3.75,0.29-5.62c-1.27-0.11-2.31,0.09-3.3,0.52c-1.54,0.67-2.17,1.79-1.98,3.44
			c0.11,0.98,0.7,1.67,1.43,2.26c2.57,2.11,5.62,2.18,8.72,1.99C145.67,49.77,145.75,49.63,145.95,49.47z M144.94,44.72
			c0.45-0.06,0.73-0.32,0.7-0.78c-0.03-0.45-0.34-0.74-0.79-0.71c-0.45,0.03-0.73,0.32-0.71,0.79
			C144.16,44.49,144.45,44.72,144.94,44.72z"/>
		<path fill="#3B3434" d="M106.76,55.23c-1.17,1.83-2.3,3.68-2.7,5.87c-0.3,1.63-0.25,3.22,0.24,4.8c0.61,1.93,1.33,3.83,2.48,5.5
			c1.53,2.22,2.35,4.67,2.72,7.31c0.53,3.79,0.47,7.63,0.75,11.44c-0.57-2.93-1.19-5.85-1.68-8.8c-0.48-2.92-1.56-5.57-3.04-8.1
			c-0.74-1.26-1.51-2.52-2.25-3.78c-2.38-4.07-2.07-8.24,0.89-11.93c0.73-0.91,1.55-1.73,2.49-2.42
			C106.68,55.17,106.72,55.2,106.76,55.23z"/>
		<path fill="#3B3434" d="M135.46,30.06c3.63-0.4,7.25-0.47,10.64,1.04c3.86,1.71,6.47,6.79,5.92,11.13
			c-0.08,0.66-0.09,1.33-0.49,2.14c0.37-3.61-1.2-6.43-3-9.09c-1.73-2.56-4.21-4.15-7.33-4.56
			C139.29,30.47,137.38,30.28,135.46,30.06z"/>
		<path fill="#3B3434" d="M133.7,46.01c-1.67-0.21-3-0.68-4.35-1.06c-1.61-0.46-3.21-0.69-4.89-0.4c-2.96,0.53-5.22,1.95-6.49,4.85
			c-0.33-1.99,1.25-3.69,2.64-4.63c1.06-0.72,2.3-0.89,3.55-1.11C127.6,43.04,130.59,44.13,133.7,46.01z"/>
		<path fill="#3B3434" d="M153.86,42.01c0.46-1.63,1.07-3.22,1.48-4.87c0.62-2.49-0.31-4.86-2.45-6.29
			c-1.45-0.97-2.76-1.28-5.43-1.35c1.14-0.51,2.35-0.54,3.58-0.42c0.06,0.01,0.12,0.03,0.18,0.04c4.41,0.93,5.89,3.3,4.77,7.65
			C155.52,38.6,154.74,40.32,153.86,42.01z"/>
		<path fill="#3B3434" d="M132.24,41.35c-1.13,1.58-2.76,1.75-4.5,1.57c-0.79-0.08-1.56-0.33-2.29-0.64
			c-2.24-0.93-4.4-0.89-6.47,0.49c-0.52,0.34-1.08,0.66-1.78,0.76c2.09-2.57,4.29-3.21,7.27-2.15c0.52,0.18,1.04,0.36,1.55,0.56
			c1.81,0.7,3.58,0.7,5.3-0.29C131.59,41.49,131.87,41.25,132.24,41.35L132.24,41.35z"/>
		<path fill="#3B3434" d="M116.5,81.9c0.44,1.31,1.07,2.56,1.78,3.78c0.89,1.54,2.05,2.83,3.53,3.81c1.75,1.16,2.51,2.99,3.29,4.81
			c-0.27-0.4-0.56-0.79-0.81-1.21c-0.85-1.42-1.96-2.59-3.35-3.48C118.11,87.81,117.04,85.03,116.5,81.9z"/>
		<path fill="#3B3434" d="M125.43,94.66c0.04,0.04,0.07,0.08,0.1,0.11c-0.03-0.04-0.06-0.09-0.09-0.13L125.43,94.66z"/>
		<path fill="#191815" d="M116.97,31.43c0.02,0.19-0.15,0.22-0.25,0.3c-0.06-0.06-0.11-0.12-0.17-0.17
			C116.65,31.42,116.79,31.36,116.97,31.43L116.97,31.43z"/>
		<path fill="#3B3434" d="M153.74,42.41c-0.02,0.05-0.04,0.1-0.06,0.15c-0.02-0.03-0.05-0.05-0.04-0.07
			c0.01-0.05,0.04-0.1,0.06-0.15C153.7,42.36,153.72,42.38,153.74,42.41z"/>
		<path fill="#3B3434" d="M106.65,55.13c0.07-0.06,0.13-0.11,0.19-0.17l-0.01-0.02c0.09,0.13,0,0.21-0.07,0.29
			C106.72,55.2,106.68,55.17,106.65,55.13z"/>
		<path fill="#3B3434" d="M106.85,54.96c0.03-0.04,0.06-0.08,0.09-0.11c0.01,0.03,0.02,0.07,0.03,0.1c-0.04,0-0.08,0-0.13,0
			C106.83,54.94,106.85,54.96,106.85,54.96z"/>
		<path fill="#3B3434" d="M125.44,94.64c-0.04-0.03-0.09-0.05-0.14-0.08c0.15-0.11,0.07,0.08,0.12,0.09
			C125.43,94.66,125.44,94.64,125.44,94.64z"/>
		<path fill="#3B3434" d="M133.92,46.03l-0.01-0.02c-0.02,0.01-0.05,0.02-0.07,0.04C133.87,46.04,133.9,46.03,133.92,46.03z"/>
		<path fill="#3B3434" d="M132.24,41.35c0.01-0.04,0.02-0.09,0.02-0.13c0.04,0.02,0.07,0.04,0.1,0.05
			C132.33,41.3,132.28,41.32,132.24,41.35L132.24,41.35z"/>
		<path fill="#191815" d="M116.96,31.42c0.02-0.05,0.05-0.09,0.07-0.14c0.03,0.03,0.06,0.06,0.09,0.09
			C117.07,31.39,117.02,31.41,116.96,31.42C116.97,31.43,116.96,31.42,116.96,31.42z"/>
		<polygon fill="#3B3434" points="153.47,42.9 153.51,42.88 153.5,42.94 		"/>
		<path fill="#191815" d="M150.03,81.51c0.01,0.08,0.05,0.2,0.02,0.23c-0.09,0.07-0.15-0.01-0.19-0.1
			C149.92,81.6,149.98,81.55,150.03,81.51z"/>
		<path fill="#FDE300" d="M124.73,116.97c2.02-1.97,4.04-3.93,6.05-5.91c0.28-0.27,0.47-0.28,0.75-0.01
			c3.17,3.07,6.35,6.13,9.56,9.22c-3.22,3.1-6.4,6.16-9.57,9.23c-0.29,0.29-0.48,0.26-0.75-0.01c-1.96-1.93-3.94-3.85-5.92-5.78
			c0.73-0.14,1.45-0.06,2.18,0.02c0.48,0.05,0.94,0.07,1.35-0.25l-0.02,0.01c0.16-0.01,0.37,0.09,0.39-0.2l-0.02,0.01
			c0.12-0.01,0.25,0.01,0.34-0.04c1.74-1.06,2.19-4.37,0.8-5.86c-0.5-0.53-1.12-0.82-1.85-0.91c-1.1-0.14-2.12,0.1-3.08,0.64
			C124.88,117.1,124.8,117.03,124.73,116.97z M137.01,120.19c-0.06,0.07-0.11,0.13-0.17,0.2c-0.57,0.15-1.14,0.28-1.58-0.29
			c-0.41-0.53-0.2-1.13-0.18-1.71c-0.38,0.71-0.46,1.43,0.18,1.99c0.47,0.41,1.05,0.62,1.57-0.01c0.13-0.01,0.24-0.03,0.17-0.2
			c0.17,0.07,0.2-0.03,0.2-0.17c0.29-0.04,0.36-0.22,0.32-0.59c-0.13,0.25-0.21,0.43-0.3,0.6
			C137.15,120.07,137.08,120.13,137.01,120.19z M137.14,117.13c0.06,0.09,0.09,0.26,0.26,0.11c0.07,0.64,0.29,1.26,0.26,1.91
			c0.08-0.65,0.31-1.32-0.27-1.89c0-0.12-0.05-0.18-0.17-0.2c-0.01-0.12-0.08-0.17-0.2-0.17c-1.32-0.86-3.07-0.4-3.77,1.07
			c-0.55,1.14-0.77,2.38-0.79,3.64c-0.01,0.96,0.58,1.71,1.45,2.03c0.95,0.34,1.98,0.14,2.55-0.5c0.15,0.02,0.21-0.04,0.18-0.18
			c0.18,0.04,0.25-0.09,0.32-0.22c0.01-0.02-0.04-0.07-0.06-0.11c-0.08,0.11-0.16,0.22-0.24,0.34c-0.12,0.01-0.18,0.07-0.19,0.18
			c-0.22,0.1-0.43,0.22-0.66,0.29c-1.34,0.46-2.58-0.2-2.67-1.48c-0.1-1.38,0.14-2.73,0.71-4c0.44-0.98,1.46-1.44,2.5-1.2
			c0.23,0.05,0.42,0.27,0.68,0.12C136.89,117.04,137.05,117.07,137.14,117.13z M135.4,118c-0.04-0.01-0.11-0.05-0.13-0.04
			c-0.04,0.04-0.05,0.1-0.08,0.15c0.04,0.01,0.11,0.05,0.12,0.04C135.36,118.11,135.38,118.05,135.4,118z M137.18,122.32
			c-0.02-0.03-0.04-0.05-0.06-0.07c-0.02,0.02-0.06,0.04-0.06,0.07c0,0.02,0.03,0.05,0.05,0.07
			C137.14,122.36,137.16,122.34,137.18,122.32z"/>
		<path fill="#FDE300" d="M124.52,123.51c-0.93-0.91-1.85-1.84-2.81-2.72c-0.42-0.39-0.42-0.64,0.01-1
			c0.67-0.56,1.31-1.17,1.96-1.76c0.26,0.36-0.09,0.62-0.16,0.91c-0.18,0.74-0.28,1.46,0.21,2.15c-0.43-1.12-0.02-2.12,0.42-3.11
			l-0.02,0.02c0.27,0.02,0.39-0.12,0.39-0.38l-0.02,0.02c0.46-0.02,0.73-0.4,1.12-0.57c1.94-0.86,3.96-0.02,4.36,1.92
			c0.33,1.62,0.15,3.18-1.25,4.34l0.02-0.01c-0.13,0.07-0.26,0.13-0.39,0.2l0.02-0.01c-0.64,0.09-1.27,0.09-1.91,0.02
			c-0.39-0.04-0.58-0.17-0.49-0.56c0.41-1.85,0.33-3.81,1.27-5.53c0.03-0.01,0.07-0.03,0.1-0.04c-0.01,0-0.03-0.01-0.04,0
			c-0.02,0.01-0.03,0.04-0.04,0.05c-0.71,0.21-0.99,0.78-1.12,1.43c-0.25,1.29-0.51,2.57-0.67,3.87
			C125.4,123.41,125.1,123.57,124.52,123.51z M123.97,121.47c0.01,0.03,0.03,0.07,0.04,0.1c0-0.01,0.01-0.04,0-0.04
			c-0.02-0.02-0.04-0.03-0.06-0.05c-0.04-0.05-0.08-0.1-0.12-0.15c-0.01,0.02-0.02,0.05-0.03,0.07
			C123.86,121.43,123.92,121.45,123.97,121.47z"/>
		<path fill="#3B3434" d="M127.26,117.43c-0.94,1.72-0.86,3.68-1.27,5.53c-0.09,0.4,0.1,0.52,0.49,0.56
			c0.64,0.07,1.28,0.07,1.91-0.02c-0.4,0.32-0.87,0.3-1.35,0.25c-0.72-0.08-1.45-0.16-2.18-0.02c-0.13-0.05-0.35,0.05-0.34-0.22
			c0.57,0.06,0.88-0.09,0.96-0.76c0.16-1.3,0.42-2.59,0.67-3.87c0.13-0.65,0.41-1.22,1.12-1.43L127.26,117.43z"/>
		<path fill="#3B3434" d="M124.15,117.98c-0.45,0.99-0.85,1.99-0.42,3.11c-0.49-0.69-0.39-1.41-0.21-2.15
			c0.07-0.3,0.43-0.55,0.16-0.91v-0.01C123.86,118.26,123.99,117.99,124.15,117.98z"/>
		<path fill="#FDE300" d="M124.1,117.59c0.17-0.16,0.33-0.32,0.5-0.49c0.04,0.06,0.08,0.13,0.12,0.19
			c-0.07,0.12-0.15,0.23-0.22,0.34l0.02-0.02c-0.09,0.04-0.18,0.08-0.26,0.12C124.2,117.68,124.15,117.64,124.1,117.59z"/>
		<path fill="#FDE300" d="M124.15,117.98c-0.16,0.01-0.29,0.28-0.47,0.03c0.08-0.2,0.23-0.33,0.42-0.42c0.05,0.05,0.1,0.1,0.15,0.14
			c-0.04,0.09-0.08,0.18-0.12,0.27L124.15,117.98z"/>
		<path fill="#FDE300" d="M124.6,117.1c0.03-0.05,0.07-0.1,0.13-0.13c0.07,0.06,0.15,0.12,0.22,0.18c-0.08,0.04-0.15,0.09-0.23,0.13
			C124.68,117.23,124.64,117.16,124.6,117.1z"/>
		<path fill="#FDFDFD" d="M145.95,49.47c-0.2,0.17-0.28,0.3-0.37,0.31c-3.1,0.19-6.14,0.12-8.72-1.99c-0.73-0.6-1.32-1.28-1.43-2.26
			c-0.19-1.65,0.45-2.77,1.98-3.44c0.99-0.43,2.03-0.63,3.3-0.52c-1.26,1.87-1.81,3.76-0.29,5.62
			C141.8,48.86,143.8,49.25,145.95,49.47z"/>
		<path fill="#FDFDFD" d="M144.94,44.72c-0.49,0-0.78-0.23-0.8-0.71c-0.02-0.47,0.26-0.76,0.71-0.79c0.45-0.03,0.77,0.26,0.79,0.71
			C145.67,44.4,145.38,44.67,144.94,44.72z"/>
		<path fill="#3B3434" d="M136.46,123.13c-0.57,0.64-1.61,0.84-2.55,0.5c-0.87-0.31-1.46-1.07-1.45-2.03
			c0.02-1.26,0.24-2.5,0.79-3.64c0.71-1.47,2.45-1.94,3.77-1.07l0.02-0.01c-0.26,0.15-0.46-0.07-0.68-0.12
			c-1.04-0.24-2.06,0.22-2.5,1.2c-0.57,1.27-0.8,2.62-0.71,4c0.09,1.28,1.33,1.94,2.67,1.48c0.23-0.08,0.44-0.2,0.66-0.29
			C136.48,123.15,136.46,123.13,136.46,123.13z"/>
		<path fill="#3B3434" d="M124.72,117.29c0.08-0.04,0.15-0.09,0.23-0.13c0.96-0.54,1.97-0.78,3.08-0.64
			c0.72,0.09,1.35,0.38,1.85,0.91c1.39,1.49,0.94,4.8-0.8,5.86c-0.09,0.05-0.23,0.03-0.34,0.04c1.4-1.16,1.58-2.72,1.25-4.34
			c-0.4-1.95-2.42-2.78-4.36-1.92c-0.39,0.17-0.66,0.55-1.12,0.57C124.57,117.52,124.65,117.4,124.72,117.29z"/>
		<path fill="#3B3434" d="M136.83,120.38c-0.52,0.63-1.11,0.41-1.57,0.01c-0.64-0.56-0.56-1.28-0.18-1.99
			c-0.02,0.58-0.23,1.18,0.18,1.71c0.44,0.56,1.01,0.43,1.58,0.29L136.83,120.38z"/>
		<path fill="#3B3434" d="M137.39,117.26c0.59,0.57,0.36,1.24,0.27,1.89c0.03-0.65-0.19-1.27-0.26-1.91L137.39,117.26z"/>
		<path fill="#3B3434" d="M137.21,120.02c0.09-0.17,0.17-0.34,0.3-0.6c0.05,0.36-0.02,0.55-0.32,0.59L137.21,120.02z"/>
		<path fill="#3B3434" d="M135.4,118c-0.02,0.05-0.04,0.11-0.08,0.15c-0.01,0.01-0.08-0.02-0.12-0.04c0.02-0.05,0.04-0.11,0.08-0.15
			C135.29,117.94,135.36,117.98,135.4,118z"/>
		<path fill="#3B3434" d="M136.66,122.96c0.08-0.11,0.16-0.22,0.24-0.34c0.02,0.04,0.07,0.09,0.06,0.11
			c-0.07,0.12-0.13,0.26-0.32,0.22L136.66,122.96z"/>
		<path fill="#3B3434" d="M128.36,123.51c0.13-0.07,0.26-0.13,0.39-0.2C128.73,123.6,128.52,123.5,128.36,123.51z"/>
		<path fill="#3B3434" d="M137.14,117.13c-0.1-0.06-0.26-0.09-0.1-0.25l-0.02,0.01c0.12,0,0.18,0.05,0.2,0.17
			C137.19,117.09,137.17,117.11,137.14,117.13z"/>
		<path fill="#3B3434" d="M137.4,117.24c-0.17,0.15-0.2-0.02-0.26-0.11c0.03-0.02,0.05-0.04,0.08-0.07c0.12,0.01,0.17,0.08,0.17,0.2
			C137.39,117.26,137.4,117.24,137.4,117.24z"/>
		<path fill="#3B3434" d="M136.85,120.39c0.06-0.07,0.11-0.13,0.17-0.2l-0.01-0.02c0.07,0.17-0.04,0.2-0.17,0.2
			C136.83,120.38,136.85,120.39,136.85,120.39z"/>
		<path fill="#3B3434" d="M137.18,122.32c-0.02,0.02-0.04,0.04-0.07,0.06c-0.02-0.02-0.05-0.05-0.05-0.07s0.04-0.04,0.06-0.07
			C137.14,122.27,137.16,122.29,137.18,122.32z"/>
		<path fill="#3B3434" d="M136.65,122.95c0.02,0.15-0.04,0.21-0.18,0.18l0.01,0.01c0.01-0.12,0.07-0.18,0.19-0.18
			C136.66,122.96,136.65,122.95,136.65,122.95z"/>
		<path fill="#3B3434" d="M137.2,120c0.01,0.14-0.02,0.24-0.2,0.17c0,0,0.01,0.02,0.01,0.01c0.07-0.06,0.13-0.12,0.2-0.17
			C137.21,120.02,137.2,120,137.2,120z"/>
		<path fill="#3B3434" d="M124.13,118c0.04-0.09,0.08-0.18,0.12-0.27c0.09-0.04,0.18-0.08,0.26-0.12
			C124.52,117.88,124.4,118.02,124.13,118z"/>
		<path fill="#3B3434" d="M127.27,117.44c0.01-0.02,0.03-0.04,0.04-0.05s0.03,0,0.04,0c-0.03,0.01-0.06,0.03-0.1,0.04
			C127.26,117.43,127.27,117.44,127.27,117.44z"/>
		<path fill="#3B3434" d="M123.97,121.47c-0.06-0.02-0.11-0.04-0.17-0.06c0.01-0.02,0.02-0.05,0.03-0.07
			c0.04,0.05,0.08,0.1,0.12,0.15L123.97,121.47z"/>
		<path fill="#3B3434" d="M123.96,121.48c0.02,0.01,0.04,0.03,0.06,0.05c0.01,0.01,0,0.03,0,0.04c-0.01-0.03-0.03-0.07-0.04-0.1
			L123.96,121.48z"/>
	</g>
</g>
</svg>
