<?xml version="1.0" encoding="utf-8"?>
<!-- Generator: Adobe Illustrator 24.0.0, SVG Export Plug-In . SVG Version: 6.00 Build 0)  -->
<svg version="1.2" baseProfile="tiny" id="Layer_1" xmlns="http://www.w3.org/2000/svg" xmlns:xlink="http://www.w3.org/1999/xlink"
	 x="0px" y="0px" width="351" height="180" viewBox="0 0 351 180" xml:space="preserve">
<path fill-rule="evenodd" d="M315.9,87.5v26.3c0.4,2.2,2,3.5,4.7,3.7h14.7c2,0.2,2.9-0.8,2.7-3V87.2c0.2-2.2-0.7-3.2-2.7-3H320
	C317.7,84.4,316.3,85.5,315.9,87.5L315.9,87.5z M321.2,80.5h19.7c6.7,0,10,3.7,10,11v18.7c0,7.3-3.3,11-10,11h-19.3
	c-2.7-0.2-4.4-1.7-5.3-4.3v19H303v-55h13v4.3C317.2,82.3,319,80.7,321.2,80.5L321.2,80.5z M281,114.9V87.2c0.2-2.2-0.7-3.2-2.7-3
	h-17c-2-0.2-2.9,0.8-2.7,3v27.7c0,2,0.9,3,2.7,3h17C280.3,117.9,281.2,116.8,281,114.9L281,114.9z M246,110.2V91.5
	c0-7.3,3.3-11,10-11h27.7c6.9,0,10.3,3.7,10.3,11v18.7c0,7.3-3.5,11-10.3,11H256C249.1,121.2,245.8,117.5,246,110.2L246,110.2z
	 M237.5,84.8h-16.3c-2.2,0.5-3.6,1.8-4,4v32.3h-12.7V80.8h12.7v5.3c1.1-2.9,3.2-4.4,6.3-4.7h14V84.8L237.5,84.8z M160.6,96.5h17
	c2.9,0.4,4.2-1.2,4-5V75.2c0.2-3.8-1.1-5.6-4-5.3h-17c-3.1,0.4-5,1.9-5.7,4.3v18C155.6,94.4,157.5,95.8,160.6,96.5L160.6,96.5z
	 M154.9,121.2h-13.3v-55h13.3v5.3c0.9-3.1,2.9-4.9,6-5.3h21c8.7,0,13,3.8,13,11.3v11.3c0,7.6-4.3,11.3-13,11.3h-20.7
	c-3.3,0-5.5-1.7-6.3-5V121.2L154.9,121.2z M108.1,109.5l4.3,8h3.3c2.2,0.2,3.2-0.9,3-3.3v-41c0.2-2.4-0.8-3.6-3-3.3H94.4
	c-2.2-0.2-3.2,0.9-3,3.3v41c-0.2,2.4,0.8,3.6,3,3.3h10l-4.7-8H108.1L108.1,109.5z M107.1,122.5l-1-1.3h-17c-7.3,0-11-3.8-11-11.3
	V77.2c0-7.3,3.7-11,11-11h32c7.3,0,11,3.7,11,11v32.7c0,7.6-3.7,11.3-11,11.3h-7l3.3,5.7C111.9,127.5,108.4,126.1,107.1,122.5z"/>
<path fill-rule="evenodd" d="M21.9,99.7V80.8H34v5.1h26.3V66.2h7v56.4h-7v-27H34v4.1H21.9L21.9,99.7z M16,0.3
	c0.5-3-3.3,15.2-5.5,54.6c0.9,16,0.3,15.3,2.7,24.7l0.2,2.3h-0.7c-0.1,5.4-0.1,10.8-0.2,16.2c0.3,0,0.6,0.1,0.9,0.1
	c-1.9,14.8-3.1,28.9-3.8,42.3c-0.4-1.6,6.9-42.1,10.8-41.8c0.1-6.7,0.2-16.5,0.2-16.5c-1.6-1.8-1.7-3.8-1.7-5.9
	c0,0.6-1.9,5.4-3.5,7.7c0-0.3,0.1-0.7,0.1-1c2.7-4.9,4.4-20.3,2.5-41.5C16.8,13.4,17.3,28.3,16,0.3L16,0.3z M16,179.9
	c0,1.5-5.6-17.2-5.8-34.6c-0.2-17.5,8.2-40.5,8.6-37.2c0.3,3.3,0.1,14.5-0.9,29.9C16.7,165.9,16.3,151.9,16,179.9z"/>
<path fill-rule="evenodd" d="M11.2,95.6C4.7,94.8,0,92.6,0,90s4.7-4.8,11.2-5.6V95.6z"/>
</svg>
