<?xml version="1.0" encoding="UTF-8"?>
<svg id="Layer_1" data-name="Layer 1" xmlns="http://www.w3.org/2000/svg" width="499.58" height="180" baseProfile="tiny" version="1.2" viewBox="0 0 499.58 180">
  <g>
    <path d="M461.45,72.46c3.6,0,7.11,1.09,10.09,3.1,2.98,2.01,5.3,4.86,6.66,8.19.07.19.22.34.4.43.18.09.39.1.58.03l13.48-4.82c.1-.04.19-.09.27-.17.08-.07.14-.16.19-.26.04-.1.07-.2.07-.31,0-.11-.01-.21-.05-.31-2.37-6.2-6.5-11.57-11.89-15.43-5.39-3.87-11.8-6.07-18.43-6.33-6.63-.26-13.19,1.43-18.87,4.87-5.68,3.44-10.22,8.46-13.06,14.46-.06.14-.08.29-.06.44.02.15.08.29.17.41l11.06,13.18c.1.12.24.21.39.25.15.04.32.04.47-.01.15-.05.28-.15.37-.27.1-.13.15-.28.16-.44.27-4.6,2.28-8.92,5.62-12.08,3.35-3.16,7.77-4.93,12.38-4.94Z" fill="#fbbc04" stroke-width="0"/>
    <path d="M450.44,104.84c-1.73-1.33-3.2-2.97-4.34-4.83-.44-.73-.92-1.42-1.45-2.08l-14.38-17.13c-.09-.11-.21-.19-.34-.24-.13-.05-.27-.06-.41-.03-.14.03-.27.09-.37.18-.11.09-.19.21-.23.35-.88,2.92-1.36,5.94-1.41,8.98-.11,7.89,2.53,15.58,7.46,21.73,4.94,6.16,11.86,10.4,19.59,12.01,7.73,1.6,15.78.47,22.75-3.21,6.98-3.68,12.46-9.68,15.5-16.97v-13.09c0-.19-.06-.38-.18-.52-.12-.15-.29-.24-.48-.27h-28.86c-.1,0-.2.02-.3.05s-.18.09-.26.17c-.07.07-.13.16-.17.25-.04.09-.06.2-.06.3v12.16c0,.21.09.4.24.55.15.14.35.23.56.23h8.68c.17,0,.33.05.46.14.14.09.24.23.29.38.06.15.06.32.02.48-.05.16-.14.3-.27.4-2.05,1.57-4.41,2.69-6.93,3.28-2.52.59-5.13.63-7.67.12-2.7-.53-5.24-1.68-7.41-3.38h-.03Z" fill="#fbbc04" stroke-width="0"/>
    <path d="M276.42,123.69c0,.21.08.41.23.56.15.15.35.23.56.23h14.07c.21,0,.41-.08.56-.23.15-.15.23-.35.23-.56v-19.31c0-.18-.06-.35-.17-.49l-14.07-18.02c-.1-.13-.24-.22-.4-.26-.16-.05-.32-.04-.48.01-.15.05-.29.15-.38.29-.1.13-.15.29-.15.45v37.33Z" fill="#fbbc04" stroke-width="0"/>
    <path d="M336.41,123.24l-26.97-37.39c-.11-.15-.16-.33-.14-.52.01-.18.09-.36.22-.49l26.84-26.84c.15-.1.25-.25.31-.41.05-.17.05-.35-.01-.52-.06-.17-.18-.31-.33-.4-.15-.09-.33-.13-.5-.11h-19.97c-.21,0-.41.09-.55.24l-21.87,22c-.11.11-.26.18-.41.21-.15.03-.31.01-.46-.05-.14-.06-.27-.16-.35-.29-.09-.13-.14-.28-.14-.44v-20.84c0-.21-.08-.41-.23-.56-.15-.15-.35-.24-.56-.24h-14.07c-.21,0-.41.08-.56.23-.15.15-.23.35-.23.56v21.3c0,.17.05.34.16.47l16.44,21.03c.07.09.15.16.25.22.1.05.21.08.32.09.11,0,.22,0,.33-.05.1-.04.2-.1.28-.18l2.94-2.95c.08-.08.18-.15.29-.19.11-.04.23-.06.34-.05.12.01.23.05.33.11.1.06.19.14.25.24l18.24,26.72c.07.11.17.2.28.26.11.06.24.09.37.09h18.6c.14-.01.27-.06.38-.14.11-.08.2-.19.26-.31s.08-.26.07-.4c-.01-.14-.06-.27-.13-.38Z" fill="#fbbc04" stroke-width="0"/>
    <path d="M342.91,123.68c0,.21.08.41.23.56.15.15.35.23.56.23h14.21c.21,0,.41-.08.56-.23.15-.15.23-.35.23-.56v-19.23c0-.18-.06-.35-.17-.49l-14.21-18.19c-.1-.13-.24-.22-.4-.26-.16-.05-.32-.04-.48.01-.15.05-.29.15-.38.29-.09.13-.15.29-.15.45v37.42Z" fill="#fbbc04" stroke-width="0"/>
    <path d="M358.71,57.36c0-.21-.08-.41-.23-.56-.14-.15-.34-.24-.55-.25h-14.21c-.21,0-.41.08-.56.23-.15.15-.23.35-.23.56v21.22c0,.17.06.34.16.47l14.21,18.19c.1.13.24.23.4.28.16.05.33.05.49,0,.16-.05.29-.16.39-.29.09-.14.15-.3.14-.47l-.02-39.38Z" fill="#fbbc04" stroke-width="0"/>
    <path d="M365.02,124.45h14.86c.21,0,.41-.08.56-.23.15-.15.23-.35.23-.56v-19.41c0-.18-.06-.35-.16-.49l-14.09-18c-.1-.13-.24-.22-.4-.26-.16-.05-.32-.04-.48.01-.15.05-.29.15-.38.29-.09.13-.15.29-.15.45v38.2Z" fill="#fbbc04" stroke-width="0"/>
    <path d="M420.39,56.56h-14.05c-.22,0-.42.08-.57.24-.15.15-.24.36-.24.57v44.21c0,.16-.05.32-.14.45-.09.13-.22.24-.37.29-.15.06-.32.07-.48.03-.16-.04-.29-.13-.4-.25l-23.46-27.29-14.21-17.95c-.1-.13-.24-.22-.4-.26-.16-.04-.32-.04-.47.02-.15.06-.28.16-.37.29-.09.13-.14.29-.14.45v21.19c0,.18.06.35.16.49l15.55,19.91,21.71,25.26c.07.09.17.15.27.2.1.05.22.07.33.07h17.37c.1,0,.21-.02.31-.06.1-.04.19-.1.26-.17.07-.07.14-.16.17-.26.04-.1.06-.2.06-.31V57.38c0-.12-.02-.23-.06-.34-.05-.11-.11-.2-.2-.28-.08-.08-.18-.14-.29-.17-.11-.04-.23-.05-.34-.03Z" fill="#fbbc04" stroke-width="0"/>
  </g>
  <g>
    <path d="M221.83,78.51c-.15-.74-.13-1.51.05-2.24.18-.73.53-1.42,1.01-2,.48-.58,1.09-1.05,1.78-1.37.69-.32,1.44-.48,2.19-.47h31.58c.21,0,.41-.08.56-.23.15-.15.23-.35.23-.56v-14.21c0-.11,0-.22-.04-.32-.04-.1-.09-.2-.17-.28-.07-.08-.16-.15-.26-.19-.1-.05-.21-.07-.32-.07h-31.58c-2.74,0-5.46.55-7.99,1.61-2.53,1.06-4.83,2.6-6.77,4.54-1.94,1.94-3.47,4.25-4.51,6.79-1.04,2.54-1.58,5.25-1.57,8,.03,5.5,2.21,10.77,6.07,14.69,3.87,3.91,9.11,6.16,14.61,6.25h8.62c.15,0,.29-.04.42-.12.13-.08.23-.19.29-.32.06-.13.09-.28.07-.43-.02-.15-.07-.29-.17-.4l-12.52-16.03c-.74-.73-1.29-1.63-1.59-2.62Z" fill="#fff" stroke-width="0"/>
    <path d="M258.79,98.45c-1.4-4.54-4.21-8.52-8.02-11.36-3.81-2.84-8.43-4.39-13.18-4.43h-7.55c-.15,0-.29.04-.42.12s-.23.19-.29.33c-.06.13-.09.28-.07.43.02.15.07.29.17.4l11.15,14.21c.37.5.81.95,1.29,1.34.77.56,1.37,1.33,1.72,2.22.35.89.45,1.85.27,2.79-.26,1.19-.92,2.26-1.87,3.01-.95.76-2.14,1.17-3.36,1.15h-35.43c-.21,0-.41.08-.56.23-.15.15-.23.35-.23.56v14.21c0,.21.08.41.23.56.15.15.35.24.56.24h36.87c5.1.03,10.02-1.94,13.69-5.48,3.68-3.54,5.83-8.37,6-13.47.06-2.39-.27-4.78-.96-7.07Z" fill="#fff" stroke-width="0"/>
    <path d="M134.45,97.61v-14.21c0-.21-.09-.41-.24-.56s-.35-.23-.56-.23h-32.84c-.12,0-.24-.03-.34-.08-.11-.05-.2-.13-.27-.22l-6.76-8.64c-.09-.12-.15-.26-.17-.41-.02-.15.01-.3.08-.43.07-.13.17-.25.3-.32.13-.08.27-.12.42-.12h39.48c.21,0,.41-.08.56-.23.15-.15.23-.35.23-.56v-14.26c0-.21-.08-.41-.23-.56-.15-.15-.35-.23-.56-.23h-54.52c-.21,0-.41.08-.56.23-.15.15-.23.35-.23.56v20.53c0,.18.05.35.16.49l15.44,19.75c.07.09.17.17.27.22.11.05.22.08.34.08h39.27c.2-.01.4-.1.53-.25.14-.15.21-.35.21-.55Z" fill="#fff" stroke-width="0"/>
    <path d="M78.22,108.67v15c0,.21.08.41.23.56.15.15.35.23.56.23h54.57c.21,0,.41-.08.56-.23.15-.15.23-.35.23-.56v-14.21c0-.21-.08-.41-.23-.56-.15-.15-.35-.23-.56-.23h-38.78c-.21,0-.41-.08-.56-.23-.15-.15-.23-.35-.23-.56v-4.18c0-.18-.06-.35-.17-.49l-14.21-18.22c-.1-.13-.24-.22-.39-.26-.16-.05-.32-.04-.47,0-.15.05-.29.15-.38.28-.1.13-.15.29-.15.45v23.21Z" fill="#fff" stroke-width="0"/>
    <path d="M140.77,123.67c0,.11.02.22.06.32.04.1.1.19.18.27.08.07.17.13.27.17.1.04.21.05.32.04h14.21c.21,0,.41-.08.56-.23.15-.15.23-.35.23-.56v-20.53c0-.18-.06-.35-.17-.49l-14.21-18.19c-.1-.13-.24-.22-.4-.26-.16-.05-.32-.04-.48.01s-.29.15-.38.29c-.09.13-.15.29-.15.45l-.05,38.72Z" fill="#fff" stroke-width="0"/>
    <path d="M174.37,56.56h-32.77c-.21,0-.41.08-.56.23-.15.15-.23.35-.23.56v19.85c0,.17.05.34.16.47l18.98,24.35c.07.1.16.18.26.24.1.06.22.09.34.1h18.21c5.48,0,10.73-2.15,14.63-5.99,3.9-3.84,6.14-9.06,6.23-14.54,0-6.7-2.66-13.12-7.39-17.86-4.73-4.74-11.16-7.4-17.85-7.41ZM176.86,86.56h-11.86c-.12,0-.24-.03-.34-.08-.11-.05-.2-.13-.27-.22l-10-12.79c-.09-.12-.15-.26-.17-.4-.02-.15,0-.3.07-.43.06-.13.16-.25.29-.33.13-.08.27-.12.42-.12h21.54c1.83-.03,3.6.61,4.98,1.81,1.38,1.2,2.27,2.87,2.49,4.68.1,1-.02,2-.33,2.96-.32.95-.83,1.83-1.5,2.57-.67.74-1.5,1.34-2.41,1.74-.92.41-1.91.62-2.91.61Z" fill="#fff" stroke-width="0"/>
    <path d="M7.39,123.82c0,.11.02.21.06.31.04.1.1.18.18.26.07.07.16.13.26.17.1.04.2.06.31.06l9.24-.16h4.74c.21,0,.41-.08.56-.23.15-.15.23-.35.23-.56v-20.31c0-.18-.06-.36-.17-.51l-13.99-17.72c-.1-.13-.24-.22-.39-.26-.16-.05-.32-.04-.47,0-.15.05-.29.15-.38.28-.1.13-.15.29-.15.45v38.21Z" fill="#fff" stroke-width="0"/>
    <path d="M70.45,57l-14.12,16.93-16.01,19.22c-.08.09-.17.16-.28.21-.11.05-.22.08-.34.08s-.23-.03-.34-.08c-.11-.05-.2-.12-.28-.21l-15.92-19.22-14.37-16.9c-.1-.14-.24-.23-.4-.28-.16-.05-.33-.04-.49.01-.16.06-.3.16-.39.3-.09.14-.14.31-.13.47v20.53c0,.17.06.34.16.47l15.96,20.12,6.11,7.31,9.47,11.37c.07.09.17.17.27.22.11.05.22.08.34.08s.23-.03.34-.08c.11-.05.2-.13.27-.22l9.47-11.37,4.96-5.95c.1-.13.24-.22.4-.27.16-.04.33-.04.48.02.15.06.29.16.38.29.09.14.14.3.14.46v23.31c0,.11.02.21.06.31.04.1.1.18.18.26.07.07.16.13.26.17.1.04.2.06.31.06h4.44l9.47-.09c.1,0,.21-.02.3-.06.1-.04.18-.1.25-.17.07-.07.13-.16.17-.26.04-.1.06-.2.05-.3l.19-44.04v-22.11c.02-.17-.02-.34-.11-.48-.09-.14-.22-.26-.37-.32-.16-.07-.33-.08-.49-.04-.16.04-.31.13-.42.26Z" fill="#fff" stroke-width="0"/>
  </g>
</svg>