<?xml version="1.0" encoding="UTF-8"?>
<svg id="Layer_1" data-name="Layer 1" xmlns="http://www.w3.org/2000/svg" width="600" height="180" baseProfile="tiny" version="1.2" viewBox="0 0 600 180">
  <path d="M356.09,48.27c96.5,6.29,182.15,32.04,241.15,68.2-55.63-30.02-135.36-51.66-224.9-57.5-94.93-6.14-181.33,6.81-241,32.27-14.6,9.06-31.14,22.24-46.72,41.1h-46.64c53.01-57.87,176.69-93.21,318.11-84.08h0Z" fill="#d21a18" fill-rule="evenodd" stroke="#d21a18" stroke-miterlimit="10" stroke-width=".23"/>
  <polygon points="524.99 131.97 512.19 132.05 510.25 132.05 508.82 130.48 492.65 112.21 492.65 128.75 492.65 132.05 489.28 132.05 479.92 132.05 475.43 132.05 475.43 127.63 475.51 49.09 475.51 45.8 478.88 45.8 488.31 45.8 492.73 45.73 492.73 50.22 492.73 89 507.48 72.3 508.45 71.18 509.95 71.18 522.07 71.18 531.96 71.18 525.67 77.92 503.96 101.05 527.09 125.76 533.01 131.97 524.99 131.97" fill="#433b39" stroke-width="0"/>
  <path d="M463.9,132.12h-13.78v-34.59c0-4.57-.67-7.86-2.1-9.81-1.05-1.42-2.84-2.17-5.39-2.17h0c-1.5,0-2.92.3-4.12.9-.22.08-.45.15-.6.3-1.05.52-2.02,1.35-2.92,2.32-1.05,1.2-1.8,2.62-2.32,4.19-.6,1.57-.82,3.37-.82,5.32l-.08,30.25v3.29h-3.29l-9.43.07h-4.49v-4.42l.08-53.08v-3.29h3.37l9.43-.08h4.42v2.55c.45-.3.9-.52,1.35-.82,3.44-1.95,7.34-2.99,11.83-2.99,3.44,0,6.51.6,9.28,1.72,2.92,1.27,5.39,3.07,7.41,5.62h.08v.07h0c.52.67,1.05,1.35,1.5,2.1.45.67.9,1.5,1.27,2.32,1.8,3.97,2.7,8.76,2.7,14.45v35.79h-3.38Z" fill="#433b39" stroke-width="0"/>
  <polygon points="388.14 127.78 388.14 74.77 388.14 71.4 391.51 71.4 400.94 71.4 405.36 71.4 405.36 75.82 405.28 128.9 405.28 132.2 401.99 132.2 392.55 132.2 388.06 132.2 388.14 127.78" fill="#433b39" stroke-width="0"/>
  <polygon points="382.3 132.27 343.07 132.27 338.65 132.35 338.65 127.85 338.72 53.59 338.72 46.17 342.09 46.1 351.68 46.1 356.09 46.1 356.09 54.63 356.02 116.03 381.17 116.03 385.67 116.03 385.67 120.44 385.67 128.9 385.67 132.2 382.3 132.27" fill="#433b39" stroke-width="0"/>
  <polygon points="248.21 128.08 248.28 75 248.28 71.7 251.58 71.63 261.01 71.63 265.5 71.63 265.43 76.05 265.43 129.13 265.43 132.42 262.06 132.42 252.63 132.5 248.21 132.5 248.21 128.08" fill="#433b39" stroke-width="0"/>
  <path d="M271.19,102.03c0-4.79.67-9.06,2.02-12.88h0c1.42-3.97,3.44-7.34,6.21-10.18,2.77-2.85,6.06-5.02,9.81-6.44,3.74-1.5,7.94-2.17,12.58-2.17h0c4.49,0,8.53.67,12.13,2.1.75.3,1.35.52,1.8.75,3.07,1.42,5.69,3.37,8.01,5.91h.07c.75.82,1.42,1.72,2.1,2.62.67.9,1.27,1.8,1.8,2.85,2.7,4.94,4.04,10.78,4.04,17.67h0c0,1.27-.08,2.55-.15,3.74-.15,1.27-.3,2.47-.52,3.59h0c-1.05,5.99-3.59,11.08-7.49,15.27-2.77,2.92-5.91,5.09-9.66,6.59-3.67,1.42-7.71,2.17-12.28,2.17h0c-4.49,0-8.53-.75-12.2-2.17-3.82-1.5-7.11-3.74-9.96-6.74-2.84-2.92-4.94-6.36-6.36-10.26-1.35-3.74-2.02-7.86-1.95-12.43h0ZM288.56,102.85c0,2.62.3,4.94.97,6.96h0c.6,1.8,1.42,3.37,2.55,4.64h0c1.05,1.2,2.25,2.1,3.67,2.7,1.57.67,3.37.97,5.39.97,2.25,0,4.12-.37,5.76-1.05,1.5-.67,2.85-1.65,3.89-2.92h.07c.3-.45.6-.82.82-1.27.3-.45.6-.9.75-1.35,1.27-2.62,1.87-5.99,1.87-10.11,0-2.85-.3-5.39-.82-7.49-.6-1.87-1.35-3.44-2.32-4.64h-.08.08c-.3-.3-.52-.6-.82-.9-.3-.22-.6-.52-.9-.75-1.8-1.2-4.12-1.8-7.11-1.8h0c-2.17,0-4.04.3-5.69,1.05h0c-.37.15-.6.3-.75.37-1.35.67-2.47,1.65-3.52,2.85h0c-.37.45-.67.82-.97,1.35-.3.45-.6.9-.82,1.42-1.35,2.62-2.02,5.99-2.02,9.96h0Z" fill="#433b39" stroke-width="0"/>
  <path d="M235.63,132.5h-13.93v-2.55c-.45.3-.9.6-1.42.82-3.52,2.02-7.64,2.99-12.28,2.99h-.08c-3.89,0-7.49-.75-10.71-2.17-.6-.22-1.12-.52-1.57-.75h-.07c-2.62-1.5-5.02-3.44-7.04-5.91h-.07c-.6-.82-1.27-1.65-1.8-2.55-.6-.9-1.12-1.8-1.57-2.77-2.4-4.72-3.52-10.26-3.52-16.77,0-4.72.6-9.06,1.87-12.88,1.27-3.97,3.14-7.41,5.62-10.33h0c2.55-3.07,5.54-5.32,8.91-6.81,3.37-1.57,7.11-2.32,11.23-2.32,4.34,0,8.09.82,11.38,2.62.45.22.82.45,1.2.67l.08-24.26v-3.29h12.73l4.49-.08v4.49l-.15,78.54v3.29h-3.29v.02ZM221.86,96.49c0-1.57-.3-3.07-.75-4.34-.52-1.2-1.2-2.32-2.17-3.29h0c-.3-.3-.52-.52-.82-.75-.3-.22-.6-.45-.82-.6h-.07c-1.5-1.05-3.29-1.5-5.47-1.5-3.82,0-6.89,1.42-9.13,4.34h0c-.37.52-.67.97-.9,1.35-.3.52-.6.97-.82,1.5h0c-1.27,2.77-1.95,6.21-1.95,10.33h0c0,.75.07,1.5.07,2.17.08.82.15,1.42.22,2.02.45,2.92,1.42,5.32,2.85,7.19.9,1.12,1.95,1.95,3.14,2.55,1.27.52,2.77.82,4.49.82s3.29-.3,4.72-.97c1.42-.6,2.7-1.65,3.82-2.99h0c1.2-1.35,2.1-2.92,2.7-4.64s.82-3.59.9-5.76v-7.43Z" fill="#433b39" stroke-width="0"/>
  <path d="M133.36,75.75c2.84-1.8,5.99-3.14,9.43-4.04,3.37-.9,6.89-1.35,10.71-1.35,1.65,0,3.29.08,4.87.3,5.17.75,9.36,2.77,12.5,5.99s5.09,7.41,5.84,12.73c.22,1.72.37,3.52.37,5.54l-.15,34.14v3.29h-17.14l.07-2.1c-.3.22-.6.37-.9.52-3.22,1.87-6.96,2.85-11.16,2.85h-.07c-2.99,0-5.76-.45-8.24-1.27-.52-.15-.9-.37-1.27-.45-2.1-.9-4.04-2.1-5.69-3.67h0c-2.02-1.87-3.59-4.04-4.57-6.59-.97-2.4-1.42-5.02-1.42-7.86,0-5.91,1.8-10.63,5.39-14.15,3.44-3.37,8.46-5.54,15.12-6.44l12.73-1.8c-.22-1.87-.75-3.29-1.5-4.19-.3-.37-.67-.67-1.05-.9-.52-.22-1.2-.45-1.95-.6-.52-.07-1.12-.07-1.65-.07h0c-5.47,0-10.56,1.87-15.2,5.69l-6.66,5.47v-9.13l.07-9.06v-1.87l1.5-.97h.02ZM152.45,107.42c-1.87.22-3.52.6-4.79,1.05-1.05.37-1.87.82-2.4,1.35h0c-.08.08-.22.22-.37.37-.07.15-.15.3-.3.45h0c-.52.9-.82,2.02-.82,3.44,0,.75.15,1.35.37,1.87.15.37.37.75.75,1.05h0l.08.07c.07.08.22.15.37.22v.07c.07.08.22.15.37.22.82.45,1.95.67,3.37.67h0c1.57,0,2.99-.3,4.19-.82.22-.08.45-.15.6-.3h0c1.05-.52,2.02-1.27,2.85-2.17h.07c.22-.3.52-.6.82-.97.22-.3.45-.67.67-1.05,1.05-1.87,1.57-4.04,1.65-6.51v-.07l-7.49,1.05h0Z" fill="#433b39" stroke-width="0"/>
  <path d="M125.95,132.72h-13.78l-1.35-2.32-12.35-20.59v-.07c-.3-.45-.6-.97-.9-1.5-.37-.52-.67-.97-.9-1.35-1.42-1.95-2.62-3.29-3.67-4.04-.52-.45-1.2-.75-1.95-.97-.9-.3-1.8-.45-2.77-.45v.08h-3.59l-.08,27.93v3.29l-3.29.08h-14.08v-4.42l.08-74.34v-3.29h3.37l22.61-.08h0c4.04,0,7.64.52,10.86,1.5,3.44,1.05,6.44,2.62,8.98,4.79l.08.08h0c.67.6,1.35,1.27,2.02,1.95.6.67,1.2,1.42,1.72,2.17h0c2.62,3.82,3.97,8.46,3.89,13.78v.07c0,1.57-.07,3.14-.37,4.64-.22,1.57-.6,2.99-1.12,4.34-1.95,5.17-5.62,9.13-11.08,11.83l.15.22h0c.9.97,1.87,2.17,2.99,3.74,1.05,1.5,2.17,3.22,3.37,5.17h0l13.85,22.24,3.44,5.47-6.14.07v-.02ZM84.7,66.84v18.49h6.89c3.44,0,6.21-.97,8.31-2.99h.07c.22-.22.52-.52.75-.82h0c.3-.3.52-.6.67-.9,1.05-1.65,1.65-3.59,1.65-5.91,0-1.42-.22-2.62-.67-3.59-.3-.9-.82-1.57-1.5-2.17-.75-.67-1.72-1.12-2.92-1.5-1.35-.37-3.07-.6-5.09-.6h-8.16Z" fill="#433b39" stroke-width="0"/>
  <path d="M396.52,46.77c5.24,0,9.58,4.27,9.58,9.51s-4.34,9.58-9.58,9.58-9.51-4.27-9.51-9.58,4.27-9.51,9.51-9.51h0Z" fill="#d21a18" fill-rule="evenodd" stroke="#d21a18" stroke-miterlimit="10" stroke-width=".23"/>
  <path d="M257.19,46.1c5.32,0,9.58,4.27,9.58,9.51s-4.27,9.58-9.58,9.58-9.51-4.27-9.51-9.58,4.27-9.51,9.51-9.51h0Z" fill="#d21a18" fill-rule="evenodd" stroke="#d21a18" stroke-miterlimit="10" stroke-width=".23"/>
</svg>