<svg width="64" height="44" viewBox="0 0 32 22" fill="none" xmlns="http://www.w3.org/2000/svg">
<line stroke="black" stroke-width="2" x1="0" y1="13" x2="6" y2="13"/>
<line stroke="black" stroke-width="2" x1="0" y1="5" x2="6" y2="5"/>
<line stroke="black" stroke-width="2" x1="0" y1="17" x2="6" y2="17"/>
<line stroke="black" stroke-width="2" x1="0" y1="9" x2="6" y2="9"/>
<path fill="black" d="M15.6,16c0,1.5-0.6,3-1.5,4c-1.1,1.2-2.7,2-4.5,2H0v-2h9.6c2.2,0,4-1.8,4-4c0-2.3-1.8-4-4-4H8.4v-2h1.2c2.2,0,4-1.8,4-4
	c0-2.3-1.8-4-4-4H0V0h9.6c1.8,0,3.4,0.8,4.5,2c0.9,1,1.5,2.5,1.5,4c0,2.1-1,3.9-2.6,5C14.6,12.1,15.6,13.9,15.6,16z"/>
<path fill="black" d="M32,0v9h-4v7h-6v6h-7.1c0.7-0.6,1.2-1.2,1.6-2H20v-6h6V9h-6V7h10V2H16.6c-0.4-0.8-1-1.4-1.6-2H32z"/>
</svg>
