<?xml version="1.0" encoding="utf-8"?>
<svg version="1.2" baseProfile="tiny" id="Ebene_1" xmlns="http://www.w3.org/2000/svg" xmlns:xlink="http://www.w3.org/1999/xlink"
	 x="0px" y="0px" width="210.6" height="210.6" viewBox="0 0 210.6 210.6" xml:space="preserve">
<path fill="#FFBB00" d="M164.3,130.1c-15.2-6.4-26-15.9-36.9-20c5.7-2.5,11-6.1,14.3-9.2c3.6-3.4,4.7-7.7,4.5-11.8
	c11.3,7.7,24.7,8.2,31.5,8.6c7.1,0.4,13.8,1.8,15.2,5.2c0,0,2.2-38.4-76.9-63.9c0,0,23.6,10.7,31,19.3c0,0-8.4-0.5-11.9,4.9
	c-1.8,2.7-2.2,6.9-0.6,11.5c-1.3-0.2-2.8-0.4-4.4-0.5L4.5,4.7l13.2,28.4L5.3,28.8l3.7,7c0.1,0.1,5.2,10,17.3,31.1
	c9.5,16.6,26.5,24.9,49,23.9c0.8,0,1.8-0.1,2.8-0.2c5.7-0.4,14.5-1.2,23-2c-0.6,3.1-0.5,6.8,0.3,11.3c1,5.2,3.1,8.5,5.8,10.6
	c-6.7,3.2-12.8,9.4-15.5,16.8l0,0c-1.9,4.6-2.4,10.2-0.1,16.7v0.1c0.5,1.3,1,2.6,1.8,4c0.7,1.3,1.6,2.6,2.7,3.7
	c14,16.6,48,13.9,69.4,4.9c0.3-0.1,0.6-0.2,0.9-0.4c1.7-0.7,3.4-1.5,5.1-2.3c0.3-0.2,0.7-0.3,1-0.5c1.8-0.9,3.6-1.8,5.4-2.9
	c21.3-12.4,28.3-26.9,28.3-26.9S184.9,138.8,164.3,130.1z M169.7,73.1c6,2.6,15.3,17.6,15.3,17.6c-7.7-1.2-23.1-6.2-24.7-12
	S163.7,70.4,169.7,73.1z M149.9,147.5c0,0,1.6,5-0.3,11.5c-2.1,0.6-4.4,1.1-6.7,1.5C146.6,157.7,149.9,153.5,149.9,147.5z
	 M46.2,51.4l54.5,31c-10,1-20.6,1.9-25.9,2.2C66.7,85,59.4,84,53,81.8c-9.3-3.3-16.5-9.3-21.5-17.9C25.3,53.1,21,45.2,18.2,40.1
	L29.5,44L18.2,19.7l99.1,55c-2.7,0.4-5.4,1.2-7.8,2.4L46.2,51.4z M104.1,90.1c3.9-18.4,27.5-12.6,27.5-12.6
	c-8.6-0.2-13.6,2.2-16.1,5.6c-3.7,5.1,0.9,9,0.9,9c-1.3-0.2-2.4-0.6-3.2-1.2c0,0.1,0,0.2,0,0.2c2,7.1,7.8,9,7.8,9
	c-2.2,0.3-4.1,0.2-5.7-0.2c1.3,3,3,5.2,4.2,5.7c-5.2,0-7.9,1.2-9.9,2C105.5,104.8,102.4,98.1,104.1,90.1z M120.3,130.4
	c0,0-8.6,10.7-27,10.7c-1.1-4.2-0.7-8.4,0.3-12.1C99.4,132.8,108.2,135,120.3,130.4z M104.7,155.3c7.9-1.8,18-6.2,27.6-17.1
	c0,0-1.1,11.8-10,23c-4-0.5-8.1-1.5-12-3.1C108.3,157.3,106.4,156.3,104.7,155.3z M179.1,145.7c-1.1-2.9-1.6-8.7-1.6-8.7
	c6.6,0.6,14.6-2.1,14.6-2.1C186.8,141.4,179.1,145.7,179.1,145.7z"/>
</svg>
