<?xml version="1.0" encoding="utf-8"?>
<svg version="1.2" baseProfile="tiny" id="Ebene_1" xmlns="http://www.w3.org/2000/svg" xmlns:xlink="http://www.w3.org/1999/xlink"
	 x="0px" y="0px" width="210.6" height="210.6" viewBox="0 0 210.6 210.6" xml:space="preserve">
<g>
	<path fill="#FFBB00" d="M108.1,110.8c0,0-23.7,11.6-16,33.2c8.9,25.1,50.2,22.1,74.4,11.8c20.6-8.7,3.4-15.6,3.4-15.6l-21.3-12
		l-32.5-20.1L108.1,110.8z"/>
	<path fill="#3A3A3A" d="M164.3,130c-15.2-6.4-26-15.9-36.9-20c5.7-2.5,11-6.1,14.3-9.2c3.6-3.4,4.7-7.7,4.5-11.8
		c11.3,7.7,24.7,8.2,31.5,8.6c7.1,0.4,13.8,1.8,15.2,5.2c0,0,2.2-38.4-76.9-63.9c0,0,23.6,10.7,31,19.3c0,0-8.4-0.5-11.9,4.9
		c-1.8,2.7-2.2,6.9-0.6,11.5c-1.3-0.2-2.8-0.4-4.4-0.5L4.5,4.7l13.2,28.4L5.3,28.8l3.7,7c0.1,0.1,5.2,10,17.3,31.1
		c9.5,16.6,26.5,24.9,49,23.9c0.8,0,1.8-0.1,2.8-0.2c5.7-0.4,14.5-1.2,23-2c-0.6,3.1-0.5,6.8,0.3,11.3c1,5.2,3.1,8.5,5.8,10.5
		c-6.5,3.2-12.4,9.1-15.3,16.3l0,0c-0.1,0.2-0.2,0.4-0.2,0.6l0,0c-1.9,4.6-2.4,10.2-0.1,16.7v0.1c0.5,1.3,1,2.6,1.8,4
		c0.7,1.3,1.6,2.6,2.7,3.7c14,16.6,48,13.9,69.4,4.9c0.3-0.1,0.6-0.2,0.9-0.4c1.7-0.7,3.4-1.5,5.1-2.3c0.3-0.2,0.7-0.3,1-0.5
		c1.8-0.9,3.6-1.8,5.4-2.9c21.3-12.4,28.3-26.9,28.3-26.9S184.9,138.7,164.3,130z M169.7,73c6,2.6,15.3,17.6,15.3,17.6
		c-7.7-1.2-23.1-6.2-24.7-12C158.6,72.8,163.7,70.4,169.7,73z M74.9,84.5c-8.1,0.4-15.4-0.6-21.8-2.8c-9.3-3.3-16.5-9.3-21.5-17.9
		C25.4,53,21.1,45.1,18.3,40l11.3,3.9L18.3,19.6l99.1,55c-2.7,0.4-5.4,1.2-7.8,2.4L46.1,51.4l54.5,31C90.7,83.3,80.1,84.2,74.9,84.5
		z M93.3,141c-1.1-4.2-0.7-8.4,0.3-12.1c5.8,3.9,14.5,6,26.7,1.4C120.3,130.3,111.7,141,93.3,141z M122.3,161.2
		c-4-0.5-8.1-1.5-12-3.1c-2.1-0.9-3.9-1.8-5.6-2.8c7.9-1.8,18-6.2,27.6-17.1C132.3,138.2,131.2,150,122.3,161.2z M149.7,159
		c-2.1,0.6-4.4,1.1-6.7,1.5c3.6-2.8,6.9-7.1,7-13C149.9,147.5,151.5,152.5,149.7,159z M179.1,145.6c-1.1-2.9-1.6-8.7-1.6-8.7
		c6.6,0.6,14.6-2.1,14.6-2.1C186.8,141.3,179.1,145.6,179.1,145.6z"/>
	<path fill="#FFBB00" d="M129.9,78.1c0,0-23-5.7-26.2,12c-1.3,7.3,1.4,14.1,5.2,16.8c1.9-0.8,4.4-2,9.4-1.9c-1.1-0.5-2.7-2.6-4-5.4
		c1.5,0.3,3.3,0.5,5.4,0.2c0,0-5.5-1.8-7.4-8.6c0-0.1,0-0.1,0-0.2c0.8,0.5,1.8,0.9,3.1,1.1c0,0-4.4-3.7-0.8-8.6
		C117,80.2,121.7,78,129.9,78.1z"/>
	<path fill="#FFFFFF" d="M74.9,84.5c-8.1,0.4-15.4-0.6-21.8-2.8c-9.3-3.3-16.5-9.3-21.5-17.9C25.4,53,21.1,45.1,18.3,40l11.3,3.9
		L18.3,19.6l99.1,55c-2.7,0.4-5.4,1.2-7.8,2.4L46.1,51.4l54.5,31C90.7,83.3,80.1,84.2,74.9,84.5z"/>
	<path fill="#FFFFFF" d="M169.7,73c6,2.6,15.3,17.6,15.3,17.6c-7.7-1.2-23.1-6.2-24.7-12C158.6,72.8,163.7,70.4,169.7,73z"/>
	<path fill="#FFFFFF" d="M179.1,145.6c-1.1-2.9-1.6-8.7-1.6-8.7c6.6,0.6,14.6-2.1,14.6-2.1C186.8,141.3,179.1,145.6,179.1,145.6z"/>
</g>
</svg>
