<?xml version="1.0" encoding="utf-8"?>
<svg version="1.2" baseProfile="tiny" id="Ebene_1" xmlns="http://www.w3.org/2000/svg" xmlns:xlink="http://www.w3.org/1999/xlink"
	 x="0px" y="0px" width="854.1" height="159.2" viewBox="0 0 854.1 159.2" xml:space="preserve">
<g>
	<path fill="#FFBB00" d="M250.4,73h36.3c17.5,0,17.7,9.9,15.3,16.6s-6.9,10.3-12.8,13c5.2,2,9.1,6.8,5.7,16.5
		c-4.7,13.3-18.7,20.2-30.4,20.2h-37.6L250.4,73z M253,123.5h12c4.3,0,8.4-1.2,10.2-6.3c1.4-3.9-0.2-6-5-6h-12.8L253,123.5z
		 M261.7,98.8h10.8c4.3,0,7.4-1.2,8.9-5.5c1.2-3.3-1.2-4.6-5.4-4.6h-10.8L261.7,98.8z"/>
	<path fill="#FFBB00" d="M320.3,73h54.9l-6,17h-34.5l-2.9,8.3h31.3l-5.6,15.8h-31.3l-2.9,8.3h35.5l-6,17h-55.9L320.3,73z"/>
	<path fill="#FFBB00" d="M394.6,90H376l6-17h57.6l-6,17H415l-17.5,49.3h-20.4L394.6,90z"/>
	<path fill="#FFBB00" d="M458.5,73h20l0.7,66.3H458l0.6-9.5h-21.1l-6.3,9.5h-20.5L458.5,73z M459.4,115.6l1.3-20.4h-0.2l-13.7,20.4
		H459.4z"/>
	<path fill="#3A3A3A" d="M508.2,73h51.3l-6,17h-30.9l-2.9,8.3h26.5l-5.6,15.8h-26.5l-9,25.3h-20.4L508.2,73z"/>
	<path fill="#3A3A3A" d="M567.2,73h20.4l-17.4,49.3h29.4l-6,17h-49.8L567.2,73z"/>
	<path fill="#3A3A3A" d="M624.4,73h20.4l-23.5,66.3h-20.4L624.4,73z"/>
	<path fill="#3A3A3A" d="M683.5,132.5c-6.6,5.9-14.6,8.4-21.8,8.4c-19.6,0-26.3-15.2-19.6-34.1c9-25.3,30.3-35.4,45.3-35.4
		c16.9,0,24.3,9.2,21.8,24.8h-19.6c1-4.8-1.9-8.3-6.7-8.3c-14,0-18.8,14.8-20.4,19.3c-2.2,6.2-3.5,17.1,8.9,17.1
		c4.7,0,10.4-2.4,13.2-7.3h-9l5-14.2h27.1l-12.9,36.5h-12.9L683.5,132.5z"/>
	<path fill="#3A3A3A" d="M729.7,73h20.4l-8.2,23H761l8.2-23h20.4l-23.4,66.3h-20.4l9.3-26.3H736l-9.3,26.3h-20.4L729.7,73z"/>
	<path fill="#3A3A3A" d="M809.1,90h-18.6l6-17h57.6l-6,17h-18.6L812,139.3h-20.4L809.1,90z"/>
</g>
<g>
	<path fill="#FFBB00" d="M103.6,106.1c0,0-23.7,11.6-16,33.2c8.9,25.1,50.2,22.1,74.4,11.8c20.6-8.7,3.4-15.6,3.4-15.6l-21.3-12
		l-32.5-20.1L103.6,106.1z"/>
	<path fill="#3A3A3A" d="M159.8,125.3c-15.2-6.4-26-15.9-36.9-20c5.7-2.5,11-6.1,14.3-9.2c3.6-3.4,4.7-7.7,4.5-11.8
		c11.3,7.7,24.7,8.2,31.5,8.6c7.1,0.4,13.8,1.8,15.2,5.2c0,0,2.2-38.4-76.9-63.9c0,0,23.6,10.7,31,19.3c0,0-8.4-0.5-11.9,4.9
		c-1.8,2.7-2.2,6.9-0.6,11.5c-1.3-0.2-2.8-0.4-4.4-0.5L0,0l13.2,28.4L0.8,24.1l3.7,7c0.1,0.1,5.2,10,17.3,31.1
		c9.5,16.6,26.5,24.9,49,23.9c0.8,0,1.8-0.1,2.8-0.2c5.7-0.4,14.5-1.2,23-2c-0.6,3.1-0.5,6.8,0.3,11.3c1,5.2,3.1,8.5,5.8,10.5
		c-6.5,3.2-12.4,9.1-15.3,16.3l0,0c-0.1,0.2-0.2,0.4-0.2,0.6l0,0c-1.9,4.6-2.4,10.2-0.1,16.7v0.1c0.5,1.3,1,2.6,1.8,4
		c0.7,1.3,1.6,2.6,2.7,3.7c14,16.6,48,13.9,69.4,4.9c0.3-0.1,0.6-0.2,0.9-0.4c1.7-0.7,3.4-1.5,5.1-2.3c0.3-0.2,0.7-0.3,1-0.5
		c1.8-0.9,3.6-1.8,5.4-2.9c21.3-12.4,28.3-26.9,28.3-26.9S180.4,134,159.8,125.3z M165.2,68.3c6,2.6,15.3,17.6,15.3,17.6
		c-7.7-1.2-23.1-6.2-24.7-12C154.1,68.1,159.2,65.7,165.2,68.3z M70.4,79.8C62.3,80.2,55,79.2,48.6,77c-9.3-3.3-16.5-9.3-21.5-17.9
		c-6.2-10.8-10.5-18.7-13.3-23.8l11.3,3.9L13.8,14.9l99.1,55c-2.7,0.4-5.4,1.2-7.8,2.4L41.6,46.7l54.5,31
		C86.2,78.6,75.6,79.5,70.4,79.8z M88.8,136.3c-1.1-4.2-0.7-8.4,0.3-12.1c5.8,3.9,14.5,6,26.7,1.4
		C115.8,125.6,107.2,136.3,88.8,136.3z M117.8,156.5c-4-0.5-8.1-1.5-12-3.1c-2.1-0.9-3.9-1.8-5.6-2.8c7.9-1.8,18-6.2,27.6-17.1
		C127.8,133.5,126.7,145.3,117.8,156.5z M145.2,154.3c-2.1,0.6-4.4,1.1-6.7,1.5c3.6-2.8,6.9-7.1,7-13
		C145.4,142.8,147,147.8,145.2,154.3z M174.6,140.9c-1.1-2.9-1.6-8.7-1.6-8.7c6.6,0.6,14.6-2.1,14.6-2.1
		C182.3,136.6,174.6,140.9,174.6,140.9z"/>
	<path fill="#FFBB00" d="M125.4,73.4c0,0-23-5.7-26.2,12c-1.3,7.3,1.4,14.1,5.2,16.8c1.9-0.8,4.4-2,9.4-1.9c-1.1-0.5-2.7-2.6-4-5.4
		c1.5,0.3,3.3,0.5,5.4,0.2c0,0-5.5-1.8-7.4-8.6c0-0.1,0-0.1,0-0.2c0.8,0.5,1.8,0.9,3.1,1.1c0,0-4.4-3.7-0.8-8.6
		C112.5,75.5,117.2,73.3,125.4,73.4z"/>
	<path fill="#FFFFFF" d="M70.4,79.8C62.3,80.2,55,79.2,48.6,77c-9.3-3.3-16.5-9.3-21.5-17.9c-6.2-10.8-10.5-18.7-13.3-23.8l11.3,3.9
		L13.8,14.9l99.1,55c-2.7,0.4-5.4,1.2-7.8,2.4L41.6,46.7l54.5,31C86.2,78.6,75.6,79.5,70.4,79.8z"/>
	<path fill="#FFFFFF" d="M165.2,68.3c6,2.6,15.3,17.6,15.3,17.6c-7.7-1.2-23.1-6.2-24.7-12C154.1,68.1,159.2,65.7,165.2,68.3z"/>
	<path fill="#FFFFFF" d="M174.6,140.9c-1.1-2.9-1.6-8.7-1.6-8.7c6.6,0.6,14.6-2.1,14.6-2.1C182.3,136.6,174.6,140.9,174.6,140.9z"/>
</g>
</svg>
